<svg width="155" height="155" viewBox="0 0 155 155" fill="none" xmlns="http://www.w3.org/2000/svg">
<circle cx="77.5" cy="77.5" r="76" fill="#0E0E0E" stroke="#257E3E" stroke-width="3" stroke-dasharray="15 11"/>
<path d="M114.055 57.9429L92.005 35.9429C91.375 35.3143 90.745 35 89.8 35H58.3C54.835 35 52 37.8286 52 41.2857V116.714C52 120.171 54.835 123 58.3 123H108.7C112.165 123 115 120.171 115 116.714V60.1429C115 59.2 114.685 58.5714 114.055 57.9429ZM89.8 42.5429L107.44 60.1429H89.8V42.5429ZM108.7 116.714H58.3V41.2857H83.5V60.1429C83.5 63.6 86.335 66.4286 89.8 66.4286H108.7V116.714Z" fill="#0C8A2F"/>
<path d="M65 98H102V104H65V98Z" fill="#0C8A2F"/>
<path d="M65 79H102V85H65V79Z" fill="#0C8A2F"/>
</svg>
