<svg width="155" height="155" viewBox="0 0 155 155" fill="none" xmlns="http://www.w3.org/2000/svg">
<circle cx="77.5" cy="77.5" r="76" fill="#0E0E0E" stroke="#257E3E" stroke-width="3" stroke-dasharray="15 11"/>
<path fill-rule="evenodd" clip-rule="evenodd" d="M94.6939 29.8867C94.9743 29.6056 95.3073 29.3826 95.674 29.2305C96.0407 29.0783 96.4338 29 96.8308 29C97.2278 29 97.6209 29.0783 97.9876 29.2305C98.3542 29.3826 98.6873 29.6056 98.9677 29.8867L123.113 54.0323C123.394 54.3127 123.617 54.6457 123.77 55.0124C123.922 55.3791 124 55.7722 124 56.1692C124 56.5662 123.922 56.9593 123.77 57.326C123.617 57.6927 123.394 58.0257 123.113 58.3061L111.632 69.7873L106.628 89.7859C106.247 91.3087 105.477 92.7064 104.394 93.8419C103.31 94.9774 101.95 95.8117 100.447 96.263L38 115L56.737 52.5474C57.1886 51.0459 58.0224 49.6874 59.1567 48.6049C60.2911 47.5224 61.6871 46.7531 63.208 46.3721L83.2066 41.374L94.6939 29.8867ZM83.8284 47.4406L64.6749 52.2274C64.1664 52.3543 63.6998 52.6114 63.3209 52.9734C62.942 53.3354 62.6638 53.7898 62.5138 54.2919L47.0003 105.994L98.7142 90.4801C99.2133 90.3289 99.6647 90.0508 100.024 89.6732C100.384 89.2955 100.64 88.831 100.767 88.3251L105.559 69.1656L83.8284 47.4345V47.4406Z" fill="#0C8A2F"/>
<path fill-rule="evenodd" clip-rule="evenodd" d="M47.5251 105.837L78.7212 80.3152C79.9151 80.3152 81.0822 79.9612 82.0749 79.2979C83.0676 78.6346 83.8413 77.6919 84.2982 76.5889C84.755 75.4859 84.8746 74.2721 84.6417 73.1012C84.4087 71.9302 83.8338 70.8547 82.9896 70.0105C82.1454 69.1663 81.0698 68.5913 79.8989 68.3584C78.7279 68.1255 77.5142 68.245 76.4112 68.7019C75.3082 69.1588 74.3654 69.9325 73.7022 70.9252C73.0389 71.9179 72.6848 73.085 72.6848 74.2788L47.1629 105.475L47.006 105.994L47.5251 105.837V105.837Z" fill="#0C8A2F"/>
</svg>
