<?xml version="1.0" standalone="no"?>
<!DOCTYPE svg PUBLIC "-//W3C//DTD SVG 20010904//EN"
 "http://www.w3.org/TR/2001/REC-SVG-20010904/DTD/svg10.dtd">
<svg version="1.0" xmlns="http://www.w3.org/2000/svg"
 width="1000.000000pt" height="1000.000000pt" viewBox="0 0 1000.000000 1000.000000"
 preserveAspectRatio="xMidYMid meet">
<metadata>
Created by potrace 1.14, written by Peter Selinger 2001-2017
</metadata>
<g transform="translate(0.000000,1000.000000) scale(0.100000,-0.100000)"
fill="#000000" stroke="none">
<path d="M5896 8263 c-1 -2 -20 -5 -42 -9 -21 -3 -46 -7 -54 -8 -24 -5 -72
-25 -112 -47 -21 -11 -38 -18 -38 -14 0 3 -10 -3 -22 -14 -11 -11 -25 -18 -29
-15 -4 2 -11 -1 -15 -7 -5 -8 -2 -10 7 -5 8 4 5 0 -6 -8 -11 -9 -27 -23 -37
-30 -9 -8 -18 -13 -20 -11 -1 2 -9 -3 -16 -11 -7 -8 -10 -14 -7 -14 7 0 -9
-19 -45 -57 -14 -14 -19 -22 -12 -18 11 6 11 3 1 -13 -7 -12 -17 -18 -22 -15
-5 3 -7 0 -5 -8 3 -8 -2 -20 -11 -27 -13 -11 -13 -12 -1 -6 11 5 10 1 -3 -13
-10 -12 -20 -27 -21 -35 -6 -29 -19 -74 -25 -83 -3 -5 -6 -15 -7 -22 -1 -6 -5
-29 -8 -50 -3 -21 -8 -49 -11 -63 -7 -30 -17 -90 -18 -107 0 -7 -4 -13 -8 -13
-4 0 -6 -11 -3 -25 2 -14 1 -25 -3 -25 -5 0 -9 -10 -10 -23 -4 -35 -9 -56 -16
-63 -3 -4 -2 -15 3 -25 7 -12 7 -20 0 -24 -5 -3 -10 -15 -10 -26 0 -11 -3 -18
-7 -16 -5 3 -8 -12 -7 -34 0 -21 -2 -39 -6 -39 -3 0 -6 -8 -7 -17 -3 -43 -8
-63 -14 -63 -4 0 -6 -8 -4 -17 1 -10 0 -22 -3 -28 -3 -5 -7 -22 -9 -39 -2 -16
-5 -39 -8 -50 -2 -12 -11 -52 -20 -90 -8 -37 -18 -73 -21 -78 -4 -6 -8 -29
-11 -52 -5 -50 -10 -81 -13 -81 -3 0 -10 -54 -11 -77 0 -10 -4 -18 -7 -18 -8
0 -13 -24 -15 -77 -1 -17 -6 -29 -11 -25 -5 3 -7 -5 -4 -16 4 -12 2 -22 -4
-22 -6 0 -8 -9 -5 -20 3 -11 2 -20 -2 -20 -5 0 -8 -14 -9 -31 0 -18 -5 -36
-11 -42 -5 -5 -7 -16 -4 -23 3 -8 1 -14 -4 -14 -5 0 -10 -10 -10 -22 -2 -30
-7 -50 -16 -65 -5 -8 -3 -13 5 -13 10 0 10 -2 -1 -9 -8 -5 -10 -14 -6 -21 5
-8 4 -11 -3 -6 -6 4 -11 -2 -11 -14 -1 -11 -1 -29 -2 -40 0 -11 -4 -20 -9 -20
-5 0 -7 -9 -5 -20 2 -11 0 -20 -5 -20 -5 0 -7 -7 -4 -15 4 -8 2 -15 -4 -15 -5
0 -9 -13 -8 -30 1 -16 -2 -30 -7 -30 -5 0 -7 -7 -3 -15 3 -8 1 -15 -4 -15 -5
0 -7 -9 -5 -20 2 -11 0 -20 -5 -20 -4 0 -11 -7 -14 -16 -4 -10 -2 -13 7 -8 9
6 9 5 0 -8 -7 -8 -10 -18 -6 -21 3 -4 1 -7 -5 -7 -7 0 -12 -9 -12 -21 0 -11
-4 -17 -10 -14 -5 3 -7 0 -4 -8 3 -8 0 -18 -5 -22 -6 -3 -9 -11 -5 -16 3 -5 0
-8 -8 -7 -8 2 -12 -4 -10 -16 2 -11 -1 -15 -7 -11 -10 5 -15 -7 -12 -28 0 -4
-5 -6 -11 -5 -7 2 -12 -3 -10 -11 2 -8 -3 -11 -13 -8 -9 4 -15 1 -15 -8 0 -8
-9 -19 -20 -25 -11 -6 -19 -14 -16 -18 2 -4 -13 -7 -34 -6 -22 0 -37 -3 -34
-7 3 -5 -9 -7 -25 -5 -17 2 -29 0 -26 -3 2 -4 -25 -7 -60 -7 -43 -1 -62 3 -58
10 5 7 2 7 -8 0 -8 -6 -43 -10 -79 -9 -36 1 -69 -1 -75 -4 -5 -3 -143 -6 -305
-7 -352 -2 -333 -1 -327 -16 2 -7 -2 -30 -9 -50 -7 -21 -11 -38 -8 -38 2 0 0
-9 -6 -21 -6 -11 -12 -35 -12 -52 0 -18 -5 -37 -10 -44 -5 -7 -7 -17 -3 -23 3
-5 2 -10 -4 -10 -5 0 -8 -9 -6 -20 2 -11 0 -22 -5 -25 -5 -3 -7 -14 -5 -25 2
-11 0 -20 -5 -20 -5 0 -7 -9 -5 -20 2 -11 0 -20 -5 -20 -5 0 -7 -9 -5 -20 2
-11 0 -20 -5 -20 -5 0 -7 -9 -5 -20 2 -11 -1 -20 -6 -20 -6 0 -7 -9 -4 -21 4
-12 3 -19 -2 -16 -5 3 -8 -7 -7 -24 1 -16 -2 -29 -8 -29 -5 0 -7 -3 -5 -7 3
-5 0 -19 -6 -33 -9 -23 -12 -39 -16 -93 0 -10 -5 -16 -9 -13 -4 2 -7 -11 -7
-30 1 -19 -3 -34 -8 -34 -6 0 -7 -3 -4 -7 4 -3 2 -12 -4 -20 -9 -10 -8 -13 1
-13 9 0 9 -4 2 -13 -6 -7 -13 -25 -16 -40 -3 -15 -9 -39 -12 -54 -4 -16 -7
-40 -8 -55 0 -14 -4 -24 -8 -21 -5 2 -8 -6 -9 -19 0 -13 -2 -30 -4 -38 -2 -8
-6 -25 -9 -37 -16 -63 -16 -63 12 -64 88 -2 1070 2 1087 5 11 2 27 6 35 9 8 4
32 8 53 10 21 2 43 9 49 15 6 6 17 8 24 5 8 -3 14 -1 14 5 0 8 31 21 60 26 3
1 20 11 37 24 18 13 38 20 43 17 6 -4 9 -1 8 7 -2 7 3 12 10 11 6 -2 12 3 12
11 0 8 14 26 31 40 17 14 28 26 24 26 -3 0 3 10 15 22 11 12 20 25 20 30 0 15
4 23 17 36 7 7 13 22 13 33 0 11 4 18 9 15 5 -4 7 4 3 16 -3 14 -1 19 6 14 7
-4 10 1 7 14 -2 11 -1 20 3 20 4 0 8 10 9 23 3 48 16 102 25 108 5 3 9 9 9 13
-4 32 -8 32 549 32 372 0 550 -4 551 -11 3 -32 9 -64 18 -99 5 -21 8 -47 6
-57 -2 -11 1 -19 7 -19 6 0 8 -9 5 -20 -3 -11 -1 -20 5 -20 6 0 8 -11 6 -25
-3 -14 -2 -25 1 -25 6 0 11 -31 14 -77 0 -7 3 -13 7 -13 4 0 7 -15 7 -34 -1
-19 6 -42 14 -52 8 -11 9 -15 2 -10 -7 4 -13 2 -13 -3 0 -6 4 -11 9 -11 5 0 8
-11 6 -25 -1 -14 1 -25 5 -25 4 0 8 -12 9 -27 3 -41 7 -66 15 -85 4 -9 5 -21
2 -27 -4 -5 -2 -12 4 -16 6 -4 8 -10 5 -15 -3 -5 -1 -11 5 -15 6 -4 8 -11 5
-16 -4 -5 -3 -14 1 -20 8 -13 16 -72 15 -106 0 -13 3 -23 8 -23 6 0 10 -8 10
-17 1 -39 9 -99 16 -115 4 -9 4 -21 1 -26 -3 -6 1 -15 9 -22 11 -9 12 -17 5
-30 -6 -11 -6 -21 -1 -24 5 -3 12 -27 16 -53 5 -27 10 -55 12 -63 2 -8 5 -24
6 -35 2 -11 5 -24 8 -30 4 -5 5 -20 4 -33 -1 -12 2 -22 5 -22 4 0 6 -13 5 -30
-1 -17 0 -30 4 -30 7 0 12 -25 14 -72 0 -15 5 -24 10 -21 5 3 8 -5 6 -18 -1
-13 2 -32 6 -42 4 -10 5 -21 1 -24 -3 -4 1 -14 10 -24 11 -12 12 -19 4 -24 -8
-5 -7 -11 2 -23 11 -13 11 -14 -2 -7 -10 6 -9 2 3 -12 10 -11 17 -24 16 -29
-1 -5 -1 -22 0 -37 1 -20 5 -26 14 -21 9 6 9 5 0 -8 -7 -8 -10 -18 -6 -22 8
-8 12 -33 22 -134 1 -8 6 -10 14 -6 9 6 9 5 0 -7 -10 -12 -10 -18 -1 -27 9 -9
9 -12 -3 -12 -12 0 -12 -2 1 -10 8 -5 11 -10 5 -10 -5 0 -3 -5 5 -10 13 -9 13
-10 0 -10 -11 0 -12 -2 -2 -8 7 -5 13 -29 15 -54 1 -25 5 -44 9 -42 4 3 7 -4
7 -13 0 -32 10 -79 27 -129 9 -27 18 -53 19 -59 11 -40 19 -55 29 -55 6 0 5
-4 -3 -9 -11 -7 -9 -10 9 -16 18 -6 20 -9 9 -16 -10 -6 -11 -9 -1 -9 6 0 12
-6 12 -14 0 -8 7 -16 15 -20 8 -3 15 -9 14 -13 -3 -17 1 -33 9 -32 22 4 30 -3
28 -25 -2 -18 1 -23 12 -18 11 4 13 2 7 -8 -6 -10 -3 -12 13 -8 14 4 19 2 16
-7 -3 -7 11 -22 30 -33 20 -12 36 -26 36 -32 0 -5 6 -10 14 -10 8 0 16 -7 20
-15 3 -8 11 -12 18 -10 8 3 24 -4 36 -15 12 -11 22 -17 22 -13 0 4 5 2 11 -4
6 -6 18 -9 27 -5 12 4 14 1 9 -13 -6 -15 -5 -16 7 -6 10 8 16 9 21 1 3 -6 11
-8 16 -5 5 4 19 -1 31 -9 27 -19 42 -21 32 -3 -6 8 -3 8 9 -1 9 -8 21 -11 27
-7 5 3 10 2 10 -3 0 -11 30 -9 49 2 8 5 16 4 21 -4 10 -15 21 -15 31 2 5 7 9
8 9 3 0 -6 9 -11 20 -12 11 -1 18 2 15 7 -3 6 1 7 9 4 9 -4 16 -1 16 6 0 10 3
10 15 0 12 -10 15 -9 15 6 0 11 3 15 8 9 10 -15 31 -12 42 5 6 9 10 10 10 3 0
-7 7 -10 15 -7 8 4 13 9 11 13 -3 4 3 7 12 8 26 2 45 8 68 21 12 6 24 9 28 7
3 -3 4 -2 1 2 -6 7 42 33 62 33 10 0 13 6 9 16 -3 8 -2 12 4 9 6 -3 10 -1 10
6 0 7 3 9 6 6 4 -4 26 14 50 39 23 26 47 43 52 40 5 -3 9 2 8 12 0 10 5 16 13
14 9 -2 11 3 7 13 -3 9 -2 14 3 11 8 -5 46 42 44 54 -1 3 5 9 13 13 8 4 14 15
14 22 0 8 6 15 13 15 8 0 13 10 13 23 -1 12 4 21 10 20 6 -1 11 3 11 10 1 24
8 42 23 55 8 8 9 11 2 7 -6 -3 -3 10 9 29 12 20 17 36 12 36 -4 0 -2 4 6 9 13
9 19 26 22 71 1 8 6 20 11 27 5 7 7 17 3 23 -3 5 2 10 12 11 11 0 13 3 5 6 -6
2 -10 8 -7 13 3 4 7 25 10 46 4 22 9 48 13 59 3 11 5 26 4 33 -2 6 2 12 7 12
5 0 8 11 5 25 -2 14 0 25 5 25 6 0 8 6 5 14 -3 8 -1 17 4 20 6 3 8 15 5 26 -3
11 0 20 6 20 5 0 8 6 5 14 -3 7 2 21 11 30 10 10 12 16 5 16 -8 0 -9 7 -5 18
4 9 9 28 11 42 5 42 10 59 16 66 4 3 4 12 1 20 -3 8 0 14 6 14 6 0 8 7 5 15
-3 8 -2 20 2 27 4 6 9 21 10 32 3 29 12 64 19 76 3 6 1 10 -5 10 -7 0 -5 7 4
16 9 8 14 20 11 25 -4 5 0 9 7 9 10 0 9 3 -1 9 -11 7 -12 13 -4 23 6 7 13 29
17 48 3 19 9 46 12 60 3 14 6 32 6 40 0 8 6 21 12 29 9 12 8 13 -3 6 -11 -6
-12 -5 -5 6 4 8 10 23 11 34 2 11 6 27 10 35 7 17 12 44 14 78 1 12 5 22 9 22
7 0 10 19 10 63 0 15 5 27 11 27 6 0 8 8 4 20 -3 11 -2 20 3 20 6 0 8 10 4 22
-3 14 -1 19 6 14 7 -4 10 1 7 14 -2 11 0 20 5 20 4 0 6 8 3 19 -3 10 0 22 5
25 6 3 8 15 5 26 -3 11 0 20 6 20 5 0 8 7 5 15 -4 8 0 23 7 32 12 14 12 16 -1
8 -12 -7 -13 -6 -3 6 6 8 12 17 12 22 1 4 2 10 2 15 1 4 0 15 -1 26 -1 10 2
16 7 13 11 -7 10 23 -1 41 -4 7 -4 12 1 11 19 -3 25 2 14 15 -9 11 -8 15 6 20
12 5 14 9 6 14 -16 10 -4 62 15 62 13 0 12 3 -4 15 -10 9 -13 14 -5 13 7 -2
15 6 17 16 1 11 5 31 9 44 4 17 2 22 -7 17 -7 -4 -6 -1 3 7 9 7 15 23 14 36
-1 12 1 22 5 22 3 0 6 8 6 18 1 9 5 26 9 36 6 14 5 17 -3 12 -8 -5 -10 -2 -6
8 3 9 14 16 23 16 9 0 12 3 6 8 -14 10 -17 32 -4 32 8 0 7 5 -1 16 -11 12 -11
15 0 12 8 -2 14 3 15 10 0 10 7 15 18 11 18 -6 37 -6 37 0 0 4 9 7 20 7 12 0
19 -5 16 -13 -3 -7 1 -10 9 -6 8 3 13 8 10 12 -2 4 2 8 10 8 8 0 12 -4 9 -8
-5 -9 53 -6 62 4 14 14 26 7 14 -8 -10 -12 -7 -13 17 -6 17 5 37 5 46 -1 13
-7 15 -5 11 6 -4 11 0 13 15 9 12 -3 18 -10 14 -17 -4 -6 1 -5 10 3 9 7 17 10
17 6 0 -4 8 -1 17 6 11 10 14 10 9 2 -4 -7 -3 -13 1 -13 5 0 15 6 22 13 11 10
13 10 7 0 -5 -8 -1 -13 9 -13 9 0 13 4 10 10 -3 6 1 7 10 4 13 -5 13 -9 3 -23
-8 -11 -5 -10 10 3 12 11 22 15 22 10 0 -5 5 -2 10 6 5 8 10 10 10 4 0 -7 16
-10 43 -8 23 1 42 3 42 4 0 1 12 3 27 4 15 2 25 -1 22 -6 -3 -4 2 -8 11 -8 9
0 14 4 11 8 -3 5 1 9 9 9 8 0 12 -4 9 -8 -5 -9 47 -6 63 4 6 4 14 3 18 -3 3
-5 11 -10 16 -10 6 0 7 6 3 13 -5 7 0 6 11 -3 10 -8 19 -15 19 -14 12 10 47
23 42 16 -4 -6 2 -10 14 -9 11 1 20 5 20 10 0 4 6 5 13 0 6 -4 101 -8 209 -8
178 0 198 2 198 17 0 9 4 18 9 20 4 2 11 20 15 41 l7 37 -53 1 c-29 0 -95 1
-146 2 -56 1 -92 -2 -92 -8 0 -5 -4 -4 -9 3 -11 17 -21 17 -32 0 -7 -11 -9
-11 -9 1 0 10 -3 11 -13 2 -8 -6 -16 -8 -20 -5 -11 11 -72 11 -79 0 -5 -7 -8
-6 -8 3 0 10 -3 11 -14 2 -11 -10 -17 -8 -25 6 -9 16 -10 16 -11 1 0 -11 -6
-15 -20 -11 -11 3 -20 9 -20 14 0 5 -7 9 -15 9 -7 0 -19 8 -24 18 -6 9 -11 13
-11 8 0 -5 -9 1 -20 14 -11 12 -17 27 -14 31 3 5 -2 9 -11 9 -12 0 -15 6 -10
21 5 16 4 19 -5 14 -8 -5 -11 -3 -8 6 3 8 -2 20 -11 27 -9 8 -10 11 -3 7 7 -4
12 0 12 9 0 9 -4 16 -8 16 -7 0 -12 34 -15 98 0 6 -5 12 -10 12 -5 0 -4 7 3
15 9 11 9 15 1 15 -7 0 -9 5 -6 10 3 6 0 10 -7 10 -11 0 -11 2 0 9 11 6 10 11
-3 25 -10 10 -12 16 -4 16 8 0 8 5 -2 17 -8 9 -9 14 -3 10 6 -3 11 0 11 8 0 8
-5 11 -10 8 -5 -3 -7 0 -5 8 3 8 -2 22 -10 32 -15 16 -14 17 4 11 19 -7 19 -7
0 14 -11 12 -16 22 -11 22 4 0 2 6 -4 14 -9 11 -9 16 0 22 8 5 9 3 4 -6 -5 -9
-4 -11 3 -6 9 5 7 14 -5 33 -19 29 -26 56 -12 47 5 -3 6 -10 3 -16 -5 -7 -2
-8 5 -4 9 6 8 13 -5 27 -9 10 -14 25 -11 34 4 8 1 15 -6 15 -8 0 -6 4 3 10 11
7 12 10 2 10 -9 0 -11 7 -7 21 5 14 3 19 -3 15 -14 -8 -11 36 3 47 6 5 2 6 -9
3 -15 -5 -17 -2 -13 14 3 11 0 20 -6 20 -8 0 -7 3 1 9 11 7 10 9 -3 15 -9 3
-13 11 -10 16 4 6 1 18 -7 27 -11 14 -11 16 1 8 11 -6 13 -4 7 11 -4 10 -9 26
-11 34 -2 8 -4 17 -5 20 -1 3 -2 8 -1 13 0 4 -3 7 -9 7 -5 0 -7 7 -4 15 3 8 2
20 -2 27 -5 7 -10 22 -12 33 -6 42 -82 159 -82 128 0 -4 -5 -1 -10 7 -5 8 -13
15 -17 16 -4 0 -26 9 -48 19 -31 13 -58 16 -122 13 -45 -2 -88 -10 -96 -16 -7
-7 -17 -9 -20 -5 -4 3 -7 1 -7 -5 0 -7 -6 -12 -14 -12 -8 0 -16 -7 -20 -15 -3
-8 -13 -15 -22 -15 -10 0 -15 -3 -11 -6 7 -7 -29 -44 -43 -44 -5 0 -10 -5 -10
-11 0 -5 6 -7 13 -4 6 4 4 0 -5 -8 -24 -19 -35 -48 -56 -153 -5 -22 -12 -47
-17 -54 -6 -9 -4 -11 6 -5 12 8 12 6 0 -8 -7 -9 -10 -17 -6 -17 4 0 3 -6 -2
-12 -6 -7 -9 -23 -8 -35 1 -13 -1 -23 -5 -23 -4 0 -6 -11 -5 -25 2 -14 -1 -25
-7 -25 -5 0 -6 -9 -3 -21 4 -13 3 -19 -3 -16 -5 4 -8 -4 -6 -18 1 -14 -2 -25
-7 -25 -5 0 -9 -5 -9 -11 0 -5 6 -7 13 -3 9 6 9 5 0 -8 -7 -8 -10 -18 -6 -21
3 -4 -2 -7 -13 -8 -18 0 -18 -1 1 -9 11 -5 14 -9 7 -9 -7 -1 -11 -5 -7 -10 3
-5 0 -13 -6 -17 -8 -4 -7 -9 2 -15 11 -7 10 -9 -3 -9 -9 0 -20 -4 -23 -10 -3
-6 1 -7 10 -4 12 5 14 2 8 -12 -3 -11 -11 -22 -17 -26 -7 -5 -7 -8 2 -8 7 0
10 -5 7 -10 -4 -6 -12 -7 -18 -3 -8 4 -7 1 1 -9 10 -12 10 -18 1 -23 -8 -6 -7
-10 2 -16 11 -7 11 -9 1 -9 -7 0 -11 -4 -8 -9 3 -4 -1 -17 -8 -27 -11 -15 -12
-22 -3 -33 9 -12 9 -13 0 -7 -7 4 -13 3 -13 -1 0 -5 6 -15 13 -22 10 -11 10
-13 0 -7 -9 5 -13 0 -13 -14 0 -12 -4 -18 -10 -15 -5 3 -10 1 -10 -4 0 -6 5
-11 11 -11 8 0 8 -4 -1 -15 -6 -8 -9 -19 -5 -25 3 -5 0 -10 -7 -10 -11 0 -10
-2 0 -9 11 -7 11 -9 -2 -14 -9 -4 -16 -12 -16 -19 0 -9 3 -9 10 2 8 11 9 7 5
-15 -2 -16 -9 -31 -15 -33 -5 -2 -7 -8 -4 -14 4 -6 0 -14 -7 -19 -12 -7 -12
-9 0 -9 9 0 10 -4 4 -12 -9 -12 -12 -26 -14 -69 -1 -20 -78 -26 -90 -7 -7 10
-9 9 -9 -4 0 -10 -5 -15 -13 -12 -22 8 -467 10 -467 2 0 -4 -6 -5 -12 -3 -29
10 -68 13 -68 5 0 -4 -17 -4 -37 1 -26 5 -40 4 -45 -4 -6 -9 -8 -9 -8 1 0 14
-21 12 -32 -3 -5 -6 -8 -5 -8 4 0 10 -3 11 -13 2 -8 -6 -17 -8 -20 -4 -4 3
-72 6 -150 5 -118 0 -144 2 -145 14 -1 8 -2 25 -3 39 -1 14 -5 25 -9 25 -4 0
-8 11 -9 25 -1 14 -1 36 -2 50 -1 14 -5 25 -9 25 -4 0 -6 14 -5 30 1 17 -1 30
-5 30 -5 0 -7 8 -5 18 1 9 -2 23 -8 30 -6 8 -5 17 4 29 10 11 10 14 2 9 -12
-7 -17 10 -16 52 1 6 -3 12 -7 12 -4 0 -6 11 -5 25 2 14 -1 25 -5 25 -5 0 -7
10 -5 22 3 12 -1 25 -7 29 -9 6 -8 11 1 23 8 9 9 16 4 16 -6 0 -16 35 -23 78
-7 42 -15 86 -17 97 -3 11 -7 31 -8 45 -1 14 -6 33 -10 42 -4 9 -4 22 0 28 4
6 1 17 -5 25 -7 8 -10 22 -6 30 3 10 2 14 -5 9 -7 -4 -10 3 -9 17 1 13 1 26 0
29 -5 14 -13 58 -14 80 0 14 -4 27 -8 30 -4 3 -8 21 -9 40 -2 19 -6 40 -10 45
-4 6 -6 21 -5 35 1 14 0 30 -3 35 -3 6 -7 19 -9 30 -7 37 -8 40 -16 54 -7 11
-6 12 5 6 11 -7 12 -6 2 7 -7 8 -10 18 -6 21 3 4 1 7 -6 7 -8 0 -9 5 -3 16 6
11 5 25 -4 42 -7 13 -11 33 -9 43 2 11 -1 19 -7 19 -5 0 -7 7 -4 16 3 9 3 21
-1 27 -4 6 -8 20 -9 31 -4 42 -16 113 -30 174 -8 35 -12 68 -8 73 3 5 1 9 -4
9 -5 0 -9 6 -10 13 -1 19 -10 72 -12 72 -2 0 -11 65 -13 93 0 12 -4 22 -8 22
-4 0 -8 10 -8 23 0 12 -1 32 -1 45 0 12 -5 22 -11 22 -6 0 -8 13 -5 30 2 17 0
30 -4 30 -5 0 -7 10 -5 22 3 12 0 27 -6 34 -5 7 -11 28 -12 48 -1 20 -5 36 -9
36 -5 0 -8 5 -8 11 0 5 5 7 11 3 6 -3 4 4 -4 17 -8 13 -13 36 -12 51 1 15 -1
25 -5 23 -4 -2 -8 13 -9 33 -3 52 -7 74 -16 96 -4 10 -8 31 -9 47 -1 16 -3 29
-6 29 -3 0 -6 8 -7 18 -2 27 -7 47 -14 52 -4 3 -9 16 -10 30 -2 14 -6 27 -9
30 -11 11 -30 51 -30 63 0 7 -9 19 -19 27 -11 7 -18 17 -15 22 3 4 -1 11 -9
14 -9 3 -18 16 -21 30 -4 13 -13 24 -21 24 -7 0 -16 9 -20 20 -3 11 -9 19 -13
17 -4 -1 -22 13 -40 32 -17 19 -32 30 -32 26 0 -5 -7 0 -16 11 -8 10 -13 12
-9 4 4 -8 -1 -6 -10 5 -9 11 -19 21 -23 21 -17 3 -72 29 -72 34 0 3 -12 7 -26
8 -15 1 -32 6 -39 12 -6 5 -15 7 -18 3 -4 -3 -7 -2 -7 3 0 5 -21 10 -48 11
-26 1 -76 4 -110 5 -35 2 -65 2 -66 1z m-141 -925 c23 -10 29 -20 23 -33 -2
-2 6 -11 17 -20 11 -9 13 -13 5 -9 -13 7 -13 5 -2 -9 8 -9 10 -22 6 -28 -4 -8
-3 -9 4 -5 9 5 11 -3 7 -28 -2 -20 -1 -36 3 -36 5 0 9 -17 10 -37 2 -21 8 -41
15 -45 9 -6 9 -8 0 -8 -14 0 -13 -21 0 -31 4 -3 9 -30 12 -60 2 -30 4 -54 5
-54 3 0 12 -40 13 -57 1 -9 5 -14 9 -12 11 7 10 -8 -2 -26 -5 -8 -5 -17 -1
-20 5 -3 12 -16 16 -29 6 -18 4 -22 -6 -15 -12 6 -12 5 0 -9 7 -9 10 -17 6
-17 -4 0 -3 -6 3 -12 5 -7 11 -25 12 -40 4 -68 5 -78 12 -78 4 0 7 -8 7 -17 2
-47 6 -63 15 -63 6 0 5 -5 -2 -12 -8 -8 -8 -15 -1 -24 5 -7 11 -28 12 -48 1
-20 6 -36 11 -36 5 0 6 -3 3 -7 -4 -3 -1 -13 6 -21 10 -13 9 -14 -3 -7 -12 7
-13 6 -3 -7 7 -8 11 -17 8 -19 -2 -3 2 -27 9 -54 7 -28 11 -56 9 -62 -3 -7 -1
-13 5 -13 5 0 10 -17 11 -37 1 -21 3 -44 3 -50 1 -7 5 -13 10 -13 4 0 8 -11 8
-25 0 -14 0 -36 0 -50 0 -14 4 -25 9 -25 5 0 9 -10 8 -22 0 -13 3 -36 6 -53
14 -66 17 -81 22 -115 2 -19 11 -66 19 -103 9 -38 15 -72 14 -75 0 -4 1 -9 2
-12 2 -7 11 -43 14 -60 2 -8 8 -41 15 -72 7 -32 10 -62 7 -67 -4 -5 -1 -13 5
-16 5 -4 8 -13 5 -20 -2 -7 -2 -16 2 -19 6 -7 10 -21 16 -66 5 -31 15 -80 22
-102 3 -9 7 -25 9 -37 4 -20 0 -20 -518 -18 l-522 2 3 39 c1 22 7 45 13 53 9
10 8 13 -2 13 -10 0 -10 3 -3 8 9 6 30 88 36 140 1 6 6 12 12 12 6 0 4 5 -4
10 -12 7 -12 12 -2 22 6 6 12 20 12 30 0 10 8 31 18 45 9 15 11 24 5 20 -7 -5
-13 -4 -13 2 0 6 4 11 9 11 5 0 7 10 3 22 -3 13 -1 19 5 15 7 -4 10 5 8 23 -1
17 1 30 6 30 4 0 6 9 4 20 -2 11 0 20 5 20 5 0 7 9 5 20 -2 11 1 20 7 20 5 0
8 7 5 15 -4 8 -2 17 3 20 5 3 7 12 3 20 -3 8 0 15 5 15 6 0 9 9 7 20 -2 11 0
20 4 20 5 0 7 11 6 25 -2 14 0 25 4 25 4 0 7 12 6 28 0 15 3 29 7 32 4 3 8 21
10 39 1 18 6 35 11 38 4 2 2 12 -5 21 -10 12 -10 14 0 8 8 -5 12 0 13 16 1 36
9 72 17 78 4 3 7 12 7 20 -1 8 4 21 9 29 8 11 8 13 -1 8 -9 -5 -8 0 2 19 7 15
11 32 9 39 -3 7 0 16 5 20 6 3 9 10 6 15 -3 5 -1 11 4 15 6 3 7 13 4 22 -5 12
-3 14 8 8 12 -7 12 -6 1 7 -9 12 -10 18 -2 23 7 4 10 16 7 26 -3 11 0 19 6 19
6 0 7 3 4 7 -4 3 -1 13 6 21 6 9 7 13 1 9 -6 -3 -11 0 -11 8 0 8 4 12 9 9 8
-5 12 17 9 45 -2 7 2 10 7 7 5 -3 8 8 7 24 -1 17 1 30 4 30 4 0 7 8 8 18 1 18
10 57 13 57 1 0 3 9 5 20 2 11 6 31 9 45 4 14 7 40 8 58 1 18 6 36 11 39 6 4
7 1 2 -8 -5 -8 -5 -11 0 -7 4 4 9 25 11 45 3 41 12 89 22 113 7 18 13 49 13
73 0 9 4 17 8 17 5 0 8 8 8 18 0 44 4 63 11 58 5 -3 8 7 7 22 -1 15 3 36 9 47
10 20 15 37 18 68 1 9 9 17 17 17 8 0 12 3 8 6 -8 8 25 44 40 44 7 0 24 -5 38
-12z m3056 -1327 c15 -1 18 -6 21 -56 2 -19 5 -22 15 -13 11 8 12 7 7 -6 -3
-9 0 -24 7 -33 8 -10 9 -14 2 -10 -8 5 -11 0 -10 -13 1 -11 5 -20 10 -20 5 0
4 -6 -2 -14 -9 -10 -8 -16 3 -25 8 -7 12 -19 9 -27 -3 -8 1 -14 8 -14 11 0 11
-3 -1 -10 -10 -6 -11 -10 -2 -10 6 0 12 -5 12 -11 0 -5 -5 -7 -11 -4 -6 4 -5
-2 2 -13 7 -12 18 -18 24 -14 5 3 4 -1 -3 -10 -8 -11 -10 -26 -5 -45 4 -15 6
-34 5 -40 -2 -8 3 -10 14 -6 14 5 15 3 5 -15 -8 -15 -8 -22 -1 -22 5 0 10 -5
10 -11 0 -5 -4 -7 -10 -4 -5 3 -10 1 -10 -4 0 -6 4 -11 9 -11 5 0 12 -7 15
-16 3 -8 2 -12 -4 -9 -6 3 -10 1 -10 -4 0 -6 5 -11 11 -11 5 0 7 -4 4 -10 -3
-5 -1 -10 6 -10 8 0 8 -4 -1 -15 -10 -12 -10 -15 0 -15 9 0 9 -4 -1 -17 -10
-11 -10 -14 -1 -9 8 5 12 -1 12 -18 0 -14 5 -26 11 -26 5 0 7 -5 4 -10 -4 -6
-12 -7 -18 -3 -8 5 -8 2 0 -9 7 -8 9 -19 5 -23 -4 -5 -1 -5 6 -1 11 7 16 -15
15 -76 0 -10 7 -18 16 -18 13 0 13 -2 0 -12 -8 -7 -13 -12 -10 -11 2 1 10 -5
18 -13 27 -27 8 -43 -51 -43 -31 0 -60 -2 -66 -6 -5 -3 -10 -1 -10 4 0 6 -5
11 -11 11 -5 0 -7 -5 -3 -11 4 -8 1 -8 -13 -1 -12 7 -25 7 -36 1 -13 -8 -17
-6 -17 6 0 8 -5 15 -11 15 -5 0 -7 -4 -4 -10 3 -5 1 -10 -5 -10 -6 0 -8 -6 -4
-12 4 -7 -2 -4 -14 6 -17 15 -22 16 -23 5 0 -8 -4 -6 -9 6 -8 18 -9 18 -9 -5
-1 -20 -3 -22 -11 -10 -11 17 -32 20 -42 5 -5 -6 -8 -6 -8 3 0 6 -5 12 -11 12
-5 0 -7 -5 -3 -11 4 -7 -1 -7 -16 1 -18 10 -24 9 -31 -1 -8 -13 -13 -5 -10 15
1 5 -5 6 -13 3 -10 -4 -13 -1 -9 9 3 7 9 14 14 14 5 0 9 5 9 11 0 5 -4 8 -9 4
-5 -3 -12 -1 -16 5 -5 9 6 14 26 12 3 -1 6 5 6 13 0 8 -5 12 -10 8 -5 -3 -4 4
2 15 7 14 8 23 1 27 -13 8 -3 25 13 25 7 0 6 -4 -3 -10 -9 -6 -10 -10 -3 -10
17 0 25 17 13 25 -8 5 -7 12 2 23 7 9 8 13 2 9 -6 -3 -11 0 -11 8 0 8 5 11 10
8 6 -4 8 2 5 15 -4 13 -2 19 6 16 7 -3 11 15 12 53 0 35 5 57 11 56 13 -3 12
29 -2 39 -6 4 -2 8 8 8 9 0 17 5 17 11 0 5 -5 7 -11 3 -7 -4 -10 -1 -7 7 3 8
11 13 18 11 11 -2 11 0 1 12 -9 11 -9 16 0 21 8 6 7 10 -2 16 -11 7 -10 9 5 9
15 0 16 3 7 14 -9 11 -8 15 6 20 15 6 15 8 3 16 -12 8 -12 10 -1 10 11 0 11 3
0 17 -12 15 -12 16 3 11 16 -7 20 14 5 28 -4 4 0 15 8 24 9 10 15 21 14 26 -4
26 2 45 14 38 9 -5 9 -4 0 6 -13 14 -6 43 8 34 5 -3 6 3 2 12 -5 13 -3 15 8 9
11 -6 12 -5 2 5 -9 10 -10 17 -2 27 9 10 8 13 -2 14 -8 0 -3 5 10 10 14 5 21
15 18 23 -4 9 0 13 11 11 9 -2 24 -4 33 -4z m-1614 -956 c23 0 45 4 49 7 4 4
12 4 18 1 16 -11 56 -11 62 -1 3 4 10 5 17 1 19 -12 87 -11 80 1 -4 6 1 4 12
-4 10 -8 21 -13 24 -12 28 17 43 23 38 15 -3 -4 46 -8 109 -8 69 0 114 4 114
10 0 6 3 6 8 0 4 -6 21 -11 37 -11 17 0 33 5 37 11 5 6 8 6 8 0 0 -5 25 -10
55 -11 33 0 52 3 48 9 -4 6 -1 7 6 3 20 -13 61 -14 61 -3 0 6 6 2 14 -8 13
-18 13 -18 24 1 6 10 12 14 12 9 0 -12 60 -13 79 0 9 5 12 4 7 -3 -4 -7 3 -10
23 -7 22 2 30 -1 34 -17 4 -14 2 -18 -8 -14 -9 3 -12 0 -8 -9 3 -8 9 -12 14
-9 5 3 9 0 9 -5 0 -6 -5 -11 -11 -11 -5 0 -7 -4 -4 -10 3 -5 2 -10 -3 -10 -5
0 -9 -10 -8 -22 1 -15 -4 -22 -13 -20 -12 3 -12 0 -2 -12 9 -10 9 -20 2 -34
-7 -13 -7 -22 2 -31 9 -10 9 -12 -3 -9 -10 2 -14 -4 -12 -19 2 -13 -2 -23 -9
-23 -9 0 -9 -3 0 -14 9 -11 9 -17 -1 -27 -14 -15 -19 -35 -21 -91 -1 -20 -5
-34 -8 -32 -12 7 -18 -23 -7 -34 8 -8 7 -13 -4 -17 -15 -6 -18 -31 -4 -53 4
-8 3 -11 -4 -10 -12 3 -17 -12 -22 -54 -1 -10 -6 -18 -11 -18 -5 0 -4 -7 3
-15 9 -11 9 -15 1 -15 -7 0 -9 -4 -6 -10 3 -5 3 -10 -2 -10 -4 0 -9 -12 -10
-27 -3 -39 -10 -88 -13 -88 -1 0 -3 -9 -5 -20 -3 -21 -19 -93 -30 -135 -3 -14
-8 -38 -10 -54 -3 -16 -8 -32 -12 -35 -5 -3 -9 -17 -11 -31 -1 -14 -4 -38 -7
-55 -3 -16 -7 -39 -9 -50 -2 -11 -4 -20 -5 -20 -4 0 -12 -40 -12 -57 0 -10 -4
-20 -9 -23 -5 -3 -7 -12 -3 -20 3 -8 1 -15 -5 -15 -5 0 -8 -12 -6 -26 1 -15
-4 -38 -13 -50 -12 -19 -13 -24 -2 -24 12 0 12 -2 1 -9 -8 -4 -12 -17 -10 -27
2 -10 -2 -18 -8 -17 -6 1 -9 -13 -8 -33 2 -25 0 -33 -9 -28 -9 5 -9 4 0 -6 8
-9 9 -19 2 -32 -5 -10 -7 -22 -4 -27 3 -5 1 -11 -4 -13 -9 -3 -23 -58 -22 -90
0 -10 -4 -18 -9 -18 -5 0 -9 -8 -8 -17 0 -28 -10 -65 -22 -77 -6 -6 -6 -14 1
-23 8 -9 8 -13 0 -13 -6 0 -10 -3 -10 -7 1 -5 0 -11 -1 -15 -1 -5 -4 -12 -5
-18 -1 -5 -4 -12 -5 -15 -3 -7 -7 -22 -9 -36 0 -5 -6 -7 -13 -3 -7 4 -8 3 -4
-5 5 -7 -3 -22 -18 -36 -14 -13 -26 -22 -26 -19 0 3 -14 -5 -32 -17 -17 -13
-28 -17 -23 -9 6 10 3 12 -13 8 -13 -4 -30 1 -43 13 -12 10 -25 17 -28 14 -4
-2 -13 5 -21 15 -8 10 -17 17 -22 14 -4 -3 -5 2 -2 10 3 9 1 16 -6 16 -6 0 -8
5 -5 10 3 6 1 10 -5 10 -6 0 -8 5 -5 10 3 6 0 10 -7 10 -9 0 -9 3 2 10 11 7
11 10 2 10 -7 0 -10 5 -7 10 3 6 0 10 -7 10 -9 0 -9 3 2 10 13 8 8 14 -11 12
-3 -1 -4 10 -1 24 2 13 0 30 -6 37 -6 7 -7 19 -3 26 10 15 -9 71 -23 71 -5 0
-1 7 10 15 10 8 13 14 5 13 -8 -2 -14 8 -16 24 -2 16 -7 38 -10 49 -5 16 -4
20 6 15 8 -4 6 -1 -3 7 -14 11 -15 16 -5 27 7 7 7 10 1 7 -7 -4 -11 5 -12 24
0 17 -5 36 -9 42 -5 7 -9 31 -8 54 0 22 -3 39 -7 37 -4 -2 -9 0 -13 6 -3 5 0
10 7 10 8 0 9 3 3 8 -16 11 -19 46 -3 36 8 -4 7 0 -3 12 -8 10 -14 31 -13 47
2 15 0 27 -4 27 -13 0 -11 40 1 41 7 0 3 4 -8 9 -11 5 -14 9 -7 9 9 1 9 7 -3
25 -11 17 -13 26 -5 31 8 5 6 14 -4 31 -19 28 -20 38 -3 28 8 -6 8 -3 -1 9 -8
9 -11 21 -8 26 4 5 3 12 -2 15 -4 2 -9 19 -10 37 -2 18 -8 37 -15 41 -9 6 -9
8 2 8 11 0 11 3 0 17 -12 15 -12 16 1 8 13 -8 13 -6 2 7 -7 9 -14 30 -14 47
-1 17 -4 31 -9 31 -9 0 -6 20 5 39 6 9 5 12 -2 7 -6 -3 -13 -2 -17 4 -3 5 0
10 7 11 7 0 4 4 -7 9 -11 5 -14 9 -8 9 9 1 10 8 3 26 -7 17 -6 25 1 25 6 0 3
8 -8 18 -10 9 -12 13 -4 7 12 -9 12 -7 2 13 -7 13 -10 30 -7 38 3 8 0 14 -5
14 -6 0 -9 9 -6 20 3 11 1 23 -4 26 -6 3 -5 12 2 20 7 9 8 14 3 13 -21 -4 -26
2 -13 18 10 11 10 14 2 9 -8 -4 -13 -1 -13 8 0 9 5 16 11 16 5 0 7 5 4 10 -4
6 -11 7 -17 4 -7 -5 -9 -2 -5 8 3 9 0 21 -6 28 -9 10 -9 11 1 5 15 -8 13 25
-2 36 -11 8 -17 71 -6 64 5 -3 6 4 3 15 -3 11 -9 20 -13 20 -4 0 -8 16 -8 36
0 20 -5 41 -11 47 -7 7 -7 14 0 24 8 9 8 13 0 13 -6 0 -11 12 -11 26 0 17 4
23 13 18 6 -4 2 3 -11 16 -23 21 -23 23 -5 40 10 9 20 14 23 11 3 -4 24 -7 47
-6z"/>
<path d="M883 5601 c-14 -13 -11 -22 23 -58 10 -10 12 -80 3 -90 -1 -2 -2 -11
-3 -20 -1 -10 -6 -25 -11 -33 -5 -8 -8 -27 -6 -42 1 -16 -1 -28 -6 -28 -8 0
-14 -28 -16 -77 -1 -13 -5 -23 -10 -23 -4 0 -5 -9 -2 -20 3 -11 2 -20 -3 -20
-6 0 -8 -9 -5 -20 3 -11 1 -20 -4 -20 -5 0 -9 -8 -10 -17 -1 -21 -10 -67 -18
-103 -3 -14 -8 -35 -11 -47 -2 -13 -6 -33 -8 -45 -3 -13 -8 -34 -11 -48 -4
-14 -7 -35 -8 -47 -1 -13 -5 -23 -10 -23 -4 0 -5 -4 -2 -10 3 -5 3 -16 -1 -22
-5 -7 -9 -19 -11 -28 -1 -8 -5 -28 -8 -45 -4 -16 -6 -38 -6 -47 0 -10 -4 -18
-9 -18 -4 0 -7 -8 -5 -17 1 -10 0 -22 -3 -28 -4 -5 -7 -23 -8 -38 -2 -16 -5
-31 -8 -34 -3 -3 2 -19 11 -34 20 -33 -2 -31 317 -31 199 0 214 5 165 53 -29
28 -39 69 -18 69 6 0 8 7 5 16 -3 9 -1 35 6 58 6 22 11 47 9 54 -1 6 2 12 6
12 4 0 8 20 8 44 0 25 4 42 9 39 5 -4 7 1 3 9 -3 9 2 26 10 39 9 12 11 19 5
15 -7 -4 -12 -2 -12 3 0 6 5 11 10 11 6 0 10 6 9 13 -4 28 2 68 9 64 4 -3 8
11 9 31 4 59 5 66 15 79 5 7 7 17 4 22 -4 5 -2 12 4 16 6 4 8 11 5 16 -4 5 0
9 7 9 10 0 10 2 -1 9 -9 6 -10 11 -3 15 6 4 9 13 5 21 -3 8 0 15 6 15 6 0 8 7
5 15 -3 8 -2 20 2 27 4 7 9 22 11 33 5 35 10 60 12 60 4 0 10 36 15 80 3 22 6
41 7 43 1 1 2 5 4 10 1 4 5 15 10 26 13 30 11 90 -4 106 -20 20 -467 22 -488
1z"/>
<path d="M1729 5597 c-7 -13 -6 -19 6 -23 8 -3 12 -10 9 -15 -3 -5 0 -9 6 -9
13 0 4 -58 -13 -79 -10 -12 -9 -13 3 -7 8 4 7 1 -4 -8 -11 -9 -16 -22 -12 -31
3 -9 2 -13 -3 -10 -5 3 -11 -5 -13 -17 -2 -13 -9 -22 -15 -21 -7 2 -10 -4 -7
-12 3 -8 -2 -22 -11 -31 -9 -9 -14 -22 -12 -28 6 -14 -18 -37 -29 -28 -5 4 -2
-2 6 -12 10 -13 10 -17 3 -12 -7 4 -14 2 -14 -3 -1 -6 -2 -17 -3 -23 -1 -7 -7
-12 -14 -11 -6 2 -9 -3 -6 -11 3 -8 -5 -24 -18 -36 -20 -20 -20 -22 -4 -16 15
5 14 1 -7 -20 -15 -15 -27 -38 -27 -51 0 -14 -4 -21 -10 -18 -5 3 -10 -2 -10
-12 0 -11 -5 -24 -12 -31 -9 -9 -9 -12 2 -12 13 0 13 -1 0 -9 -8 -6 -17 -8
-21 -5 -4 2 -6 -8 -3 -22 4 -22 2 -25 -9 -16 -11 10 -13 5 -12 -22 0 -19 -3
-32 -7 -30 -9 6 -29 -31 -21 -40 3 -3 2 -6 -4 -6 -12 0 -67 -100 -56 -100 5 0
3 -4 -3 -8 -5 -4 -25 -37 -42 -74 -18 -38 -37 -68 -43 -68 -6 0 -7 -5 -4 -10
4 -6 1 -17 -5 -25 -7 -8 -9 -15 -4 -15 4 0 -1 -7 -12 -16 -10 -8 -13 -13 -6
-9 6 3 12 1 12 -4 0 -6 -6 -11 -13 -11 -8 0 -14 -7 -14 -15 0 -8 4 -15 9 -15
5 0 7 -4 4 -8 -7 -11 0 -12 207 -13 119 -1 182 2 190 10 8 8 8 11 -1 11 -7 0
-12 7 -12 16 0 8 -7 23 -16 31 -11 12 -12 18 -4 23 6 4 12 11 12 16 2 24 11
44 20 44 5 0 6 5 3 10 -3 6 -1 10 5 10 6 0 8 5 5 10 -3 6 -1 10 5 10 6 0 9 4
6 9 -3 5 2 15 11 22 18 16 207 23 197 8 -3 -5 2 -9 12 -9 13 0 14 -3 5 -13 -6
-8 -8 -16 -5 -20 3 -3 6 -37 7 -76 0 -39 4 -71 9 -71 5 0 7 -4 4 -8 -3 -5 3
-15 12 -23 14 -11 58 -14 232 -12 118 1 221 2 228 2 20 1 11 61 -9 61 -9 0
-23 8 -30 17 -12 15 -12 16 1 8 12 -7 13 -6 4 6 -6 8 -10 30 -9 49 1 19 -4 45
-11 56 -9 15 -10 24 -2 32 8 8 7 16 -3 28 -8 10 -9 15 -3 11 7 -4 10 14 10 53
-1 33 -3 60 -6 60 -4 0 -7 25 -8 55 -2 77 -4 85 -16 85 -5 0 -1 7 10 16 10 8
13 13 7 9 -9 -4 -13 1 -13 15 0 14 4 19 13 14 9 -6 9 -4 -1 8 -7 8 -10 23 -6
32 3 9 2 16 -3 16 -5 0 -10 16 -10 35 0 22 4 32 11 28 6 -4 5 1 -3 10 -8 10
-11 20 -8 23 3 3 2 17 -4 31 -5 13 -5 22 -1 19 5 -3 6 14 3 37 -4 23 -6 53 -5
67 1 14 -2 30 -6 35 -4 6 -6 19 -4 29 7 45 7 103 -1 135 -15 66 -11 65 -298
66 -237 0 -260 -1 -268 -18z m179 -476 c2 -6 -2 -19 -9 -27 -9 -11 -10 -17 -1
-22 6 -4 10 -29 9 -59 -1 -28 1 -49 6 -46 4 2 7 -1 7 -6 0 -6 -4 -11 -10 -11
-5 0 -7 -6 -4 -13 3 -9 -7 -13 -38 -12 -24 0 -46 -4 -50 -10 -5 -6 -8 -6 -8 2
0 7 -6 10 -13 7 -7 -2 -13 4 -14 16 -1 11 2 20 7 20 5 0 7 7 4 15 -4 8 -1 15
7 15 7 0 9 3 6 7 -4 3 1 12 11 20 11 10 12 12 2 8 -9 -4 -8 -1 3 8 14 11 15
16 5 20 -8 4 -7 6 5 6 9 1 16 4 16 9 -3 20 2 32 13 26 6 -4 8 -3 5 4 -11 16 3
40 21 38 9 -2 18 -8 20 -15z"/>
<path d="M2768 5598 c-48 -25 -87 -68 -94 -105 -3 -18 -9 -33 -13 -33 -4 0 -8
-8 -9 -17 -2 -19 -9 -54 -12 -63 -1 -3 -2 -8 -1 -12 0 -5 -3 -8 -9 -8 -5 0 -7
-7 -4 -15 4 -8 1 -21 -5 -29 -6 -7 -8 -16 -5 -19 4 -4 -1 -18 -11 -33 -11 -17
-12 -24 -4 -18 12 6 12 5 1 -8 -10 -13 -10 -18 -1 -24 9 -5 9 -10 -2 -18 -19
-15 -21 -136 -2 -136 7 0 12 -4 11 -8 -2 -4 9 -20 25 -35 15 -15 27 -25 27
-22 0 4 7 -1 16 -9 8 -9 20 -14 25 -10 5 3 12 -2 15 -10 3 -9 10 -14 14 -11 4
3 11 -2 14 -11 3 -8 10 -13 14 -10 5 3 20 -6 34 -19 14 -13 29 -21 33 -17 4 4
12 -1 19 -10 7 -9 19 -18 26 -20 20 -4 39 -22 33 -30 -2 -5 4 -8 14 -8 15 0
16 -2 3 -10 -9 -6 -10 -10 -3 -10 6 0 11 -9 10 -20 -1 -18 -5 -22 -23 -19 -4
0 -10 -5 -15 -12 -4 -7 -18 -14 -31 -16 -48 -7 -233 -10 -243 -4 -5 3 -18 6
-27 7 -35 3 -38 4 -38 19 0 8 -9 19 -20 25 -14 8 -20 8 -20 0 0 -6 -4 -8 -10
-5 -5 3 -11 1 -11 -4 -3 -21 -4 -26 -12 -38 -5 -8 -3 -13 5 -13 8 0 7 -4 -4
-11 -10 -5 -15 -16 -12 -24 4 -8 3 -23 -1 -32 -17 -40 -26 -153 -12 -153 6 0
8 -3 4 -6 -3 -4 1 -13 9 -21 12 -13 59 -15 292 -14 292 1 327 2 338 14 4 4 16
7 26 7 10 0 18 5 18 10 0 6 7 10 15 10 8 0 15 5 15 10 0 6 6 10 13 10 7 0 21
11 31 25 10 13 22 22 27 19 5 -3 6 1 3 9 -3 8 2 20 10 27 9 7 13 16 10 21 -3
5 2 16 10 25 9 9 14 19 11 24 -3 5 -1 11 5 15 6 4 8 11 4 16 -3 5 -1 16 5 22
5 7 11 31 12 52 1 22 5 45 8 50 10 19 9 35 -2 35 -9 0 -9 2 -1 8 16 11 24 52
11 52 -9 0 -8 3 0 8 8 5 10 19 7 37 -4 17 -7 36 -7 43 0 6 -4 12 -9 12 -4 0
-8 6 -8 13 0 14 -50 61 -75 71 -9 3 -13 11 -9 17 4 7 3 9 -3 6 -5 -4 -19 3
-31 13 -12 11 -26 20 -32 20 -5 0 -10 5 -10 10 0 6 -6 10 -14 10 -8 0 -16 4
-18 9 -1 5 -10 11 -18 13 -8 2 -24 12 -35 23 -11 11 -24 22 -30 23 -5 1 -10 5
-11 10 0 4 -4 15 -8 24 -8 18 16 53 28 41 3 -4 6 -1 6 5 0 8 33 11 103 11 56
1 113 3 127 7 14 3 30 6 37 6 7 1 11 4 9 7 -4 6 19 31 25 28 2 -1 3 -1 2 1 -1
2 5 18 12 37 8 18 11 35 8 38 -3 4 -1 12 4 19 6 7 11 20 11 28 1 8 3 33 5 55
l3 40 -297 0 c-261 0 -303 -2 -331 -17z"/>
<path d="M9106 5048 c3 -5 10 -6 15 -3 13 9 11 12 -6 12 -8 0 -12 -4 -9 -9z"/>
<path d="M8938 4715 c-3 -3 -16 -8 -28 -10 -13 -2 -31 -12 -41 -21 -11 -10
-19 -14 -19 -9 0 4 -6 2 -13 -4 -8 -6 -18 -7 -23 -3 -4 4 -2 -1 5 -11 12 -15
12 -17 -3 -11 -12 5 -15 2 -9 -12 5 -13 3 -15 -7 -9 -10 6 -12 3 -8 -13 4 -12
2 -20 -3 -16 -5 3 -10 0 -10 -5 -3 -26 -4 -30 -11 -37 -4 -4 -3 -13 3 -21 9
-10 7 -13 -7 -14 -16 0 -15 -2 4 -10 13 -5 21 -13 18 -18 -4 -5 -1 -22 6 -38
6 -15 10 -32 9 -37 -1 -5 5 -4 13 4 14 11 16 9 16 -11 0 -19 2 -21 10 -9 9 13
10 13 10 0 0 -8 16 -22 34 -31 30 -14 35 -14 44 0 10 14 11 14 6 0 -4 -13 2
-16 28 -14 56 4 87 21 81 44 -5 20 -5 20 -25 -2 -11 -12 -17 -17 -14 -11 3 6
-1 11 -9 11 -8 0 -11 -5 -8 -10 4 -6 -1 -8 -11 -4 -10 4 -15 3 -11 -3 7 -11
-8 -14 -19 -3 -4 4 -19 8 -34 9 -39 2 -39 1 -52 34 -7 16 -16 28 -20 25 -11
-7 -33 62 -32 98 0 16 7 36 14 45 11 13 11 14 -1 7 -9 -5 -7 2 5 17 10 14 22
24 25 22 3 -2 11 8 17 21 8 17 16 23 28 18 12 -4 15 -3 10 5 -10 17 0 15 18
-4 9 -8 16 -11 16 -6 0 5 22 8 49 6 38 -2 49 0 47 11 -1 8 -6 18 -11 22 -4 4
-5 2 -1 -4 4 -7 2 -13 -3 -13 -6 0 -11 5 -11 11 0 8 -5 8 -15 -1 -11 -9 -15
-9 -15 -1 0 7 -5 9 -12 4 -7 -4 -19 -8 -26 -9 -10 -2 -11 1 -1 12 11 13 9 20
-3 9z"/>
<path d="M9042 4670 c-10 -17 -10 -20 4 -20 9 0 12 -5 8 -12 -4 -7 -4 -10 1
-6 14 13 34 -20 36 -61 2 -22 8 -41 13 -41 6 0 5 -4 -2 -9 -8 -4 -13 -11 -13
-15 4 -26 0 -36 -11 -29 -8 4 -6 -4 4 -18 13 -20 13 -26 3 -26 -8 0 -12 5 -9
11 3 6 -2 2 -10 -8 -17 -21 -21 -42 -8 -49 9 -6 33 19 25 27 -4 3 -1 6 5 6 13
0 44 68 37 80 -3 5 1 11 7 13 10 4 10 8 -1 15 -8 6 -9 12 -3 16 6 3 8 15 5 26
-3 11 -10 17 -17 13 -7 -4 -7 -2 1 8 10 12 9 18 -7 29 -10 7 -17 17 -14 22 3
4 -1 8 -9 8 -8 0 -18 9 -23 20 l-9 20 -13 -20z"/>
<path d="M8895 4621 c2 -11 -3 -22 -12 -25 -14 -6 -13 -9 3 -28 11 -12 13 -18
7 -14 -15 8 -18 -10 -3 -19 5 -3 7 -12 4 -20 -4 -8 -11 -12 -18 -8 -7 4 -7 1
2 -10 6 -9 12 -19 12 -22 0 -3 0 -15 0 -27 l0 -23 20 25 c13 17 16 28 8 37 -5
7 -7 17 -4 22 11 17 54 -9 60 -35 4 -13 13 -24 21 -24 8 0 15 -6 15 -12 0 -9
3 -8 10 2 5 8 5 17 1 20 -11 7 -25 42 -25 65 -1 17 -8 20 -41 20 -38 0 -40 2
-41 33 -1 26 3 32 20 33 12 0 29 2 39 4 13 2 17 -1 13 -11 -3 -8 -2 -13 3 -10
5 3 11 -3 14 -15 5 -18 3 -18 -11 -7 -16 12 -16 11 -1 -11 15 -24 49 -45 35
-22 -4 6 -3 11 1 11 5 0 9 9 9 20 0 11 -4 20 -9 20 -4 0 -5 5 -2 10 3 6 -1 10
-10 10 -9 0 -14 4 -10 9 3 5 1 12 -4 15 -5 4 -12 2 -16 -4 -4 -7 -13 -6 -28 1
-16 9 -22 9 -25 1 -2 -8 -9 -9 -22 -2 -16 8 -18 7 -15 -9z m10 -31 c-3 -5 -12
-10 -18 -10 -7 0 -6 4 3 10 19 12 23 12 15 0z m60 -78 c-3 -3 -11 0 -18 7 -9
10 -8 11 6 5 10 -3 15 -9 12 -12z m-51 -30 c3 -5 -1 -9 -9 -9 -8 0 -12 4 -9 9
3 4 7 8 9 8 2 0 6 -4 9 -8z"/>
<path d="M3517 4069 c-14 -4 -28 -4 -31 -1 -3 3 -17 -6 -30 -19 -14 -13 -34
-33 -45 -43 -11 -10 -18 -23 -15 -27 3 -5 2 -15 -3 -21 -8 -14 -11 -38 -16
-128 -4 -60 1 -92 13 -85 4 3 14 -3 21 -12 12 -14 12 -16 -1 -10 -8 4 -6 2 4
-5 11 -7 30 -23 42 -34 13 -12 25 -20 27 -18 2 3 10 -3 18 -13 12 -14 12 -16
0 -8 -10 5 -12 4 -7 -3 4 -7 13 -12 21 -12 14 0 37 -54 27 -65 -4 -3 -8 -23
-9 -43 -5 -62 -6 -66 -19 -79 -14 -14 -34 -17 -35 -5 0 4 -2 17 -5 30 -2 12
-1 22 4 22 4 0 8 26 9 58 l2 58 -46 3 c-26 1 -50 4 -54 7 -4 2 -10 0 -14 -6
-4 -6 -9 -8 -13 -6 -10 6 -27 -16 -29 -39 -5 -47 -9 -60 -18 -67 -6 -5 -6 -8
1 -8 11 0 13 -27 3 -45 -5 -9 -5 -21 3 -82 1 -7 5 -13 10 -13 5 0 7 -4 3 -9
-5 -9 32 -27 48 -23 4 1 7 -2 7 -6 0 -10 18 -13 90 -12 97 2 119 4 114 12 -3
4 0 9 5 9 6 1 15 2 20 3 5 0 13 5 18 10 5 5 2 6 -7 1 -8 -4 -5 2 8 14 12 12
22 25 23 29 0 4 2 14 4 22 2 8 6 30 10 49 3 19 8 38 11 43 3 4 0 8 -6 8 -6 0
-8 5 -3 13 22 35 22 140 0 162 -9 9 -17 21 -17 26 0 5 -7 9 -16 9 -8 0 -12 5
-9 10 3 6 0 10 -9 10 -18 0 -96 73 -97 92 -5 65 13 118 39 112 14 -4 18 -14
17 -47 0 -23 -4 -47 -8 -54 -11 -18 13 -28 74 -28 57 0 73 7 75 35 3 24 12 64
19 83 9 22 73 20 84 -3 7 -13 7 -80 1 -87 -7 -8 -5 -30 4 -42 8 -11 8 -13 -1
-7 -7 4 -13 4 -14 -1 0 -4 -2 -24 -4 -43 -7 -83 -21 -185 -25 -185 -1 0 -4
-13 -6 -30 -2 -16 -6 -50 -9 -75 -11 -90 -11 -140 -1 -141 77 -9 143 1 131 20
-3 5 -1 12 4 15 5 3 7 19 6 36 -1 17 1 32 5 35 4 3 6 18 5 35 -1 16 0 30 4 30
5 0 11 40 15 113 0 15 4 27 7 27 3 0 4 16 3 35 -2 20 0 34 5 31 4 -3 7 13 6
34 -1 22 1 40 5 40 3 0 5 12 4 28 0 15 4 30 10 34 7 5 7 8 -2 8 -8 0 -10 5 -5
13 8 12 9 17 11 50 1 10 6 15 12 12 5 -3 7 0 4 9 -6 15 7 21 62 30 l30 6 -3
-53 c-4 -64 -7 -79 -16 -94 -4 -6 -3 -14 3 -18 6 -4 7 -12 3 -18 -9 -14 -13
-33 -15 -69 0 -15 -5 -25 -9 -22 -5 3 -5 -6 1 -20 6 -17 6 -27 -1 -31 -5 -4
-7 -16 -3 -27 3 -11 2 -18 -3 -15 -5 3 -8 -9 -7 -26 0 -18 -5 -42 -12 -53 -7
-12 -10 -25 -7 -28 10 -9 13 -36 4 -36 -4 0 -6 -16 -6 -35 1 -20 -2 -38 -6
-41 -8 -4 -4 -42 5 -51 9 -9 116 -10 116 -1 0 5 5 6 10 3 6 -3 10 -3 11 2 0 4
3 17 5 28 2 11 5 29 6 40 1 11 6 26 12 34 9 12 8 13 -4 6 -12 -7 -13 -6 -4 6
6 8 10 24 9 37 -1 13 2 25 6 28 4 2 6 16 3 29 -2 14 0 25 5 25 6 0 8 6 5 14
-7 17 9 28 30 20 11 -4 14 -17 12 -52 -2 -26 -5 -47 -6 -47 -3 0 -8 -43 -13
-113 -2 -29 0 -55 5 -59 15 -9 108 -9 108 0 0 4 4 5 10 2 5 -3 12 7 16 22 3
15 8 35 11 43 3 8 7 38 10 65 6 64 10 100 13 100 6 0 5 61 -1 70 -14 21 -16
67 -3 79 7 8 10 16 7 20 -4 3 -1 6 4 6 10 0 20 38 30 110 14 108 16 135 11
162 -4 18 -22 37 -30 31 -5 -2 -8 1 -8 6 0 6 -7 11 -15 11 -9 0 -18 6 -20 13
-4 9 -36 12 -118 10 -136 -2 -122 0 -141 -19 -14 -13 -18 -14 -31 -1 -8 8 -12
16 -10 18 3 4 -244 3 -257 -1 -5 -2 -14 -3 -20 -4 -7 0 -17 -16 -23 -33 -5
-18 -15 -33 -23 -33 -7 0 -10 5 -7 10 3 6 -1 10 -10 10 -8 0 -19 8 -22 18 -14
36 -25 40 -130 45 -22 2 -52 0 -66 -4z m774 -161 c7 -13 6 -63 -1 -63 -1 0 -3
-17 -5 -38 -3 -43 -20 -68 -40 -61 -9 4 -12 21 -9 62 3 52 10 115 13 119 5 7
35 -7 42 -19z"/>
<path d="M4510 4062 c-5 -2 -8 -8 -4 -13 3 -5 0 -9 -6 -9 -6 0 -8 -5 -4 -11 6
-10 11 -62 18 -210 2 -36 5 -70 8 -75 3 -5 6 -33 7 -63 2 -29 4 -62 6 -72 2
-10 0 -21 -5 -24 -5 -3 -7 -15 -5 -27 3 -11 1 -26 -2 -32 -7 -10 -9 -26 -14
-108 -1 -16 -5 -28 -8 -28 -3 0 -6 -17 -6 -39 0 -38 0 -38 40 -38 22 -1 45 -2
50 -3 6 -1 13 -1 18 0 10 4 26 7 35 9 5 0 9 7 9 14 1 14 11 82 18 117 5 22 14
93 18 143 1 9 6 17 11 17 5 0 7 3 4 6 -4 3 0 20 7 39 8 18 11 35 8 39 -4 3 -2
6 4 6 6 0 14 12 18 27 3 15 13 43 22 62 9 20 17 41 18 46 2 6 8 24 15 40 6 17
11 32 11 35 0 3 7 16 16 29 8 13 10 20 4 17 -6 -4 -2 9 10 28 12 20 17 36 12
36 -4 0 -1 5 7 10 26 16 -6 34 -66 35 -58 2 -74 -10 -79 -60 -4 -35 -5 -36
-14 -30 -6 3 -8 -6 -5 -21 3 -14 1 -23 -4 -20 -5 3 -8 -6 -6 -19 1 -14 -3 -25
-9 -25 -5 0 -7 -3 -4 -7 7 -7 -11 -33 -22 -33 -4 0 -7 44 -6 98 0 54 -4 101
-10 107 -9 10 -92 14 -115 7z"/>
<path d="M3013 4047 c-2 -4 -9 -4 -15 -1 -7 4 -8 2 -4 -4 4 -7 3 -12 -2 -12
-5 0 -9 -6 -10 -12 -1 -7 -4 -29 -7 -48 -8 -55 -17 -123 -18 -147 -1 -13 -3
-23 -6 -23 -4 0 -7 -17 -8 -38 -4 -56 -8 -86 -14 -97 -3 -5 -5 -23 -4 -40 2
-16 0 -34 -3 -40 -4 -5 -7 -19 -8 -30 -2 -11 -5 -42 -9 -70 -10 -87 -11 -110
-2 -128 15 -33 40 -55 53 -50 8 3 14 1 14 -4 0 -6 41 -9 94 -8 69 1 101 6 120
18 41 28 67 60 61 78 -3 10 -2 20 3 23 5 3 8 17 7 31 -2 14 0 25 4 25 5 0 8
12 8 28 0 66 7 112 17 112 6 0 4 5 -4 10 -9 6 -10 10 -3 10 7 0 10 12 8 30 -2
17 0 30 5 30 4 0 6 9 3 19 -3 10 0 28 6 40 9 16 9 21 0 21 -8 0 -8 4 -2 13 6
6 11 19 11 27 3 36 10 85 12 85 1 0 3 14 5 30 1 17 3 30 5 30 1 0 2 20 3 43 2
31 -2 46 -13 51 -19 10 -109 6 -121 -6 -8 -8 -15 -46 -25 -128 -6 -54 -9 -68
-15 -80 -3 -5 -5 -25 -4 -42 0 -18 -2 -33 -6 -33 -4 0 -5 -16 -3 -35 1 -20 0
-34 -4 -31 -4 2 -7 -15 -7 -40 1 -24 -3 -44 -8 -44 -4 0 -5 -9 -2 -20 4 -13 2
-20 -7 -20 -10 0 -9 -3 2 -10 9 -6 10 -10 3 -10 -7 0 -10 -12 -8 -30 2 -16 0
-30 -4 -30 -5 0 -7 -11 -5 -25 1 -17 -4 -29 -18 -36 -11 -6 -21 -9 -23 -7 -8
8 -15 68 -8 68 5 0 9 17 9 38 2 35 11 107 14 107 1 0 3 8 5 18 2 9 -1 17 -7
17 -7 0 -7 5 1 13 6 8 8 17 4 20 -3 4 -2 7 4 7 6 0 9 14 7 31 -2 16 0 28 4 25
4 -2 7 13 6 35 0 21 3 39 7 39 5 0 6 7 3 15 -4 8 0 23 7 32 12 14 12 16 0 8
-11 -6 -13 -4 -6 11 4 10 8 34 9 52 0 17 3 32 6 32 3 0 6 9 6 20 0 11 -4 20
-9 20 -4 0 -5 5 -2 10 3 6 -2 10 -12 11 -67 4 -96 3 -100 -4z"/>
<path d="M1467 4039 c-16 -4 -37 -6 -47 -4 -11 2 -22 0 -24 -4 -7 -11 -18 -70
-21 -120 -2 -24 -9 -47 -17 -52 -7 -5 -8 -9 -2 -9 6 0 11 -7 11 -15 0 -8 -5
-15 -10 -15 -5 0 -4 -7 3 -15 7 -8 8 -15 3 -15 -5 0 -10 -12 -11 -27 -2 -30
-9 -78 -12 -78 -1 0 -2 -19 -3 -42 0 -24 -5 -43 -10 -43 -4 0 -5 -5 -2 -10 4
-6 2 -17 -5 -25 -8 -9 -8 -15 0 -20 6 -3 7 -11 3 -18 -4 -6 -8 -25 -9 -42 -1
-16 -3 -30 -4 -30 -1 0 -3 -13 -5 -30 -1 -16 -4 -30 -5 -30 -1 0 -3 -23 -4
-50 l-2 -51 108 0 c59 0 108 4 108 9 0 4 4 6 8 3 4 -2 8 3 9 12 1 9 4 29 6 43
7 35 -3 48 -40 51 -17 1 -29 6 -27 10 3 4 0 8 -6 8 -6 0 -9 4 -6 9 5 7 16 103
19 151 1 19 26 45 46 46 26 1 51 15 45 25 -3 5 0 9 6 9 7 0 10 6 7 13 -2 6 0
22 4 34 10 26 -12 44 -42 36 -11 -3 -19 0 -19 6 0 7 -4 10 -9 7 -12 -8 -2 95
14 136 3 9 14 15 23 13 28 -4 62 17 62 37 0 11 4 27 9 36 14 26 -9 50 -44 47
-17 -1 -41 1 -55 5 -14 4 -38 3 -53 -1z"/>
<path d="M1982 4035 c-18 -10 -22 -21 -27 -70 -2 -16 -4 -30 -5 -30 -1 0 -4
-18 -6 -40 -5 -61 -11 -109 -14 -115 -1 -3 -3 -18 -5 -35 -1 -16 -3 -32 -5
-35 -1 -3 -3 -18 -5 -35 -2 -16 -7 -46 -10 -65 -3 -19 -7 -52 -8 -72 -1 -21
-4 -38 -7 -38 -4 0 -6 -10 -7 -22 0 -13 -3 -43 -8 -68 -18 -114 -20 -109 52
-114 49 -3 85 4 84 17 -1 4 -1 8 0 10 2 8 9 48 14 82 3 22 7 56 10 75 11 70
17 115 17 130 0 8 2 22 5 30 3 8 7 31 9 50 6 56 12 105 14 105 3 0 12 91 13
123 0 17 3 32 7 32 5 0 7 11 5 25 -1 14 1 25 6 25 17 0 -3 29 -24 36 -34 11
-86 10 -105 -1z"/>
<path d="M2181 4033 c-9 -6 -17 -16 -17 -22 -1 -6 -3 -12 -4 -13 -1 -2 -3 -14
-5 -28 -1 -14 -5 -47 -10 -75 -6 -45 -10 -77 -20 -155 -2 -14 -4 -27 -5 -30
-1 -3 -2 -8 -1 -12 0 -4 -4 -32 -10 -64 -6 -31 -12 -75 -14 -98 -4 -40 -12
-81 -15 -81 -1 0 -3 -22 -5 -50 -1 -27 -4 -50 -5 -50 -1 0 -3 -10 -4 -23 -3
-29 8 -36 59 -36 43 -1 75 20 67 43 -3 8 -1 12 5 8 5 -4 9 10 8 34 -1 21 2 39
6 39 4 0 6 10 4 21 -3 12 -1 27 2 33 4 6 8 25 9 42 3 86 39 56 40 -35 2 -116
9 -178 19 -179 5 -1 36 -3 67 -5 65 -4 75 6 82 78 3 22 5 40 6 40 1 0 3 16 5
35 6 57 13 112 20 160 10 68 16 123 18 148 0 12 4 22 8 22 3 0 5 12 3 27 -1
15 0 32 4 38 4 5 7 21 9 35 5 68 8 86 18 92 6 5 5 8 -3 8 -10 0 -10 5 -2 21
15 28 -7 44 -59 43 -58 0 -69 -17 -72 -111 -1 -18 -4 -31 -9 -28 -4 2 -7 -8
-7 -23 0 -51 -7 -79 -20 -79 -7 0 -13 3 -14 6 -2 13 -10 139 -11 178 -1 28 -7
44 -17 49 -27 11 -113 10 -130 -3z"/>
<path d="M2595 4039 c-4 -5 -10 -7 -14 -5 -7 4 -8 -5 -13 -74 -1 -16 -4 -30
-8 -30 -3 0 -6 -17 -7 -37 -2 -53 -18 -168 -23 -168 -1 0 -3 -14 -4 -32 -1
-18 -5 -35 -9 -39 -4 -4 -2 -13 4 -21 8 -9 8 -13 1 -13 -6 0 -9 -9 -7 -20 2
-11 0 -20 -5 -20 -5 0 -7 -7 -4 -15 4 -8 3 -23 -1 -32 -7 -17 -11 -50 -19
-149 -1 -22 -6 -46 -10 -52 -4 -7 -1 -15 8 -18 9 -3 14 -9 12 -13 -4 -6 109
-5 221 2 23 2 50 11 61 20 10 9 24 17 30 17 7 0 12 9 12 21 0 12 4 17 11 13 8
-4 9 1 4 16 -4 13 -3 20 2 17 6 -4 9 7 8 23 -1 17 1 30 5 30 4 0 6 15 5 33 -2
17 1 37 6 43 6 7 8 24 5 38 -3 14 -2 26 2 26 4 0 8 17 9 38 1 20 4 55 8 77 4
22 7 48 6 58 0 11 5 15 12 10 9 -5 8 -2 0 9 -7 8 -10 18 -6 22 4 3 8 23 10 43
1 20 8 40 15 45 10 6 10 8 0 8 -7 0 -12 6 -11 13 5 40 -4 71 -27 92 -14 13
-29 24 -33 23 -3 0 -8 1 -11 2 -18 8 -240 8 -245 -1z m151 -132 c7 -4 10 -23
8 -44 -3 -21 -6 -54 -7 -73 -1 -19 -6 -41 -10 -48 -5 -7 -6 -20 -3 -28 3 -9 3
-21 -1 -27 -3 -6 -8 -25 -9 -41 -1 -17 -5 -47 -9 -66 -4 -19 -8 -46 -9 -60 -1
-14 -4 -29 -7 -35 -4 -5 -5 -18 -4 -28 4 -22 -34 -45 -45 -27 -4 6 -5 24 -3
38 7 46 13 105 15 140 1 17 5 32 8 32 3 0 6 17 7 38 2 34 5 61 18 147 3 17 6
44 9 60 2 17 4 31 5 32 2 3 27 -3 37 -10z"/>
<path d="M655 4031 c-11 -3 -21 -12 -23 -19 -9 -42 -14 -81 -15 -114 -1 -21
-4 -38 -8 -38 -3 0 -5 -11 -4 -25 2 -14 0 -27 -4 -30 -5 -2 -7 -20 -6 -40 2
-19 0 -35 -4 -35 -4 0 -7 -10 -7 -22 -1 -22 -10 -88 -21 -153 -3 -16 -6 -45
-6 -62 -1 -18 -4 -33 -7 -33 -3 0 -6 -15 -7 -32 -1 -18 -4 -56 -7 -84 l-4 -50
66 0 c57 1 68 4 76 21 10 21 16 60 17 107 0 15 4 30 8 33 5 2 7 20 5 40 -1 20
2 35 8 35 6 0 8 3 5 7 -4 3 -1 13 6 21 10 13 9 14 -2 8 -10 -7 -11 -3 -5 15 4
13 8 39 8 57 0 17 3 32 6 32 5 0 9 38 13 113 0 15 3 27 6 27 6 0 8 18 13 98 1
17 5 32 8 32 7 0 6 77 -1 84 -9 9 -90 13 -114 7z"/>
<path d="M841 4022 c-7 -6 -14 -27 -16 -45 -2 -17 -7 -50 -10 -72 -4 -22 -7
-47 -7 -55 0 -8 -6 -21 -12 -29 -9 -12 -8 -13 4 -6 12 7 13 6 4 -6 -6 -8 -10
-26 -9 -41 1 -16 -1 -28 -5 -28 -4 0 -6 -12 -4 -27 1 -15 0 -32 -4 -37 -3 -6
-6 -27 -7 -46 0 -19 -3 -39 -6 -45 -3 -5 -5 -22 -4 -37 1 -16 -1 -28 -5 -28
-4 0 -6 -16 -5 -35 2 -19 0 -35 -4 -35 -3 0 -7 -15 -8 -32 0 -18 -3 -49 -6
-67 -3 -19 -3 -40 -1 -46 7 -16 230 -18 232 -2 1 7 4 32 8 57 l6 45 -32 2
c-18 1 -35 5 -38 8 -8 8 -10 95 -3 95 4 0 6 15 6 33 -1 17 2 37 8 44 5 7 6 17
3 22 -9 15 29 32 59 27 24 -4 31 6 26 37 0 4 3 7 7 7 11 0 10 56 -1 67 -5 4
-14 8 -20 9 -7 0 -20 2 -30 2 -14 2 -17 11 -15 47 1 28 5 42 12 38 7 -3 6 -1
-1 7 -12 13 1 59 19 61 15 3 48 6 62 8 9 1 12 8 9 21 -3 11 -1 20 5 20 11 0
10 55 -1 66 -12 13 -204 10 -216 -4z"/>
<path d="M1114 4025 c-5 -5 -9 -19 -8 -30 0 -11 -2 -24 -5 -30 -3 -5 -6 -26
-6 -45 -1 -20 -3 -40 -6 -45 -3 -6 -4 -20 -3 -32 0 -13 -2 -23 -6 -23 -3 0 -5
-16 -4 -35 2 -19 0 -35 -4 -35 -4 0 -8 -15 -9 -32 -1 -32 -5 -69 -18 -158 -12
-86 -17 -125 -17 -147 0 -13 -3 -23 -7 -23 -3 0 -6 -22 -7 -48 l0 -48 113 -1
c72 0 116 3 120 10 4 6 7 32 7 58 1 36 -2 46 -14 44 -8 -1 -21 3 -29 9 -8 6
-17 11 -20 11 -9 0 -1 119 11 177 6 25 14 31 45 34 16 1 31 2 36 3 4 1 7 8 7
16 0 8 4 15 8 15 12 0 9 74 -3 82 -5 4 -17 5 -25 3 -8 -2 -21 -1 -29 4 -13 9
-14 22 -8 109 0 6 4 12 8 12 5 0 5 7 2 17 -4 11 -3 14 5 9 7 -4 12 -3 12 2 0
5 10 9 23 9 40 1 45 3 52 26 26 84 18 90 -108 91 -58 1 -108 -3 -113 -9z"/>
<path d="M4366 3103 c-1 -1 -14 -4 -29 -7 -45 -8 -67 -17 -67 -27 0 -5 -7 -9
-16 -9 -8 0 -13 -4 -9 -9 3 -5 1 -12 -5 -16 -6 -4 -8 -11 -5 -16 4 -5 2 -9 -2
-9 -5 0 -10 -10 -11 -22 -1 -13 -4 -39 -7 -58 -11 -67 -9 -134 3 -138 7 -2 10
-8 6 -13 -3 -5 2 -9 11 -9 9 0 13 -4 10 -10 -3 -5 -1 -10 5 -10 7 0 25 -13 40
-30 15 -16 31 -30 34 -30 17 0 46 -39 51 -69 3 -18 2 -30 -2 -28 -5 3 -7 -15
-6 -39 2 -26 -1 -43 -7 -39 -5 3 -7 -3 -5 -14 2 -11 -3 -22 -12 -25 -19 -8
-44 11 -37 27 2 7 6 30 9 52 2 22 6 52 8 68 l4 27 -63 0 c-73 0 -95 -6 -87
-26 3 -8 0 -14 -5 -14 -6 0 -9 -10 -7 -21 2 -12 0 -29 -4 -38 -6 -10 -5 -23 0
-33 6 -11 6 -19 -1 -23 -6 -4 -8 -11 -5 -16 4 -5 2 -9 -4 -9 -7 0 -7 -8 -1
-24 5 -13 6 -26 3 -29 -3 -4 2 -13 11 -22 9 -9 14 -20 11 -25 -3 -4 2 -11 11
-14 10 -4 13 -2 8 7 -6 9 -3 8 8 -1 9 -7 38 -16 65 -19 26 -2 50 -5 53 -6 17
-3 111 16 116 24 3 5 10 7 15 4 5 -4 9 1 9 9 0 8 6 19 13 23 16 10 28 38 32
78 2 17 7 46 10 65 11 58 13 150 3 156 -4 3 -6 10 -3 15 4 5 1 9 -5 9 -6 0 -8
5 -5 10 3 6 -1 10 -10 10 -8 0 -18 7 -21 15 -4 8 -10 12 -15 9 -5 -3 -9 0 -9
5 0 6 -8 11 -17 11 -9 0 -14 3 -10 6 8 8 -16 33 -25 27 -5 -2 -8 1 -8 7 0 6
-4 8 -10 5 -11 -7 -11 -4 -15 68 -1 26 2 47 7 47 5 0 7 4 4 9 -3 5 2 12 11 15
24 9 31 -9 28 -70 -2 -30 0 -54 3 -55 45 -7 121 -2 131 8 6 7 9 13 7 13 -3 0
-1 12 5 28 14 35 18 134 6 150 -5 6 -7 12 -3 12 3 0 -3 9 -14 20 -11 11 -33
21 -50 22 -16 1 -30 5 -30 8 0 4 -99 8 -104 3z"/>
<path d="M3500 3089 c-17 -4 -39 -14 -49 -23 -10 -9 -20 -14 -23 -11 -3 3 -8
-1 -12 -10 -4 -11 -2 -14 7 -10 6 4 5 1 -3 -7 -8 -7 -16 -19 -18 -26 -5 -24
-12 -76 -16 -112 -3 -29 -12 -88 -20 -135 -1 -5 -6 -16 -10 -24 -6 -9 -5 -12
2 -7 7 4 10 -1 9 -14 -1 -11 -4 -20 -7 -20 -4 0 -7 -12 -7 -27 -1 -26 -4 -46
-19 -155 -14 -105 5 -157 59 -158 9 0 17 -3 17 -8 0 -4 37 -6 83 -5 102 4 107
4 107 15 0 5 4 7 9 3 5 -3 12 -1 16 5 4 6 11 7 17 4 7 -4 8 -2 4 5 -4 6 0 14
8 17 9 3 13 10 10 15 -3 5 0 9 6 9 6 0 8 5 5 10 -3 6 -3 10 2 10 4 0 9 15 10
33 2 40 10 101 13 105 3 3 9 59 11 105 1 20 4 39 8 42 4 2 6 24 5 49 -1 26 1
46 5 46 4 0 8 12 9 28 3 57 8 98 14 107 5 10 3 54 -4 85 -6 28 -44 55 -70 51
-5 0 -8 2 -8 7 0 9 -127 10 -170 1z m91 -141 c3 -21 1 -40 -5 -93 -15 -117
-19 -151 -19 -172 -1 -13 -4 -23 -7 -23 -3 0 -6 -15 -7 -32 -4 -68 -8 -97 -15
-103 -3 -4 -4 -17 -2 -30 2 -13 -1 -27 -7 -31 -8 -5 -9 -3 -4 7 8 12 6 12 -8
1 -24 -20 -37 -6 -32 36 3 20 7 55 10 77 2 22 7 58 11 80 3 22 6 48 6 58 -1
11 4 15 11 10 9 -5 8 -2 0 9 -7 8 -11 17 -8 19 3 4 8 31 20 124 2 17 4 32 5
35 2 3 2 9 1 14 -2 11 19 26 37 26 6 0 13 -6 13 -12z"/>
<path d="M2020 3083 c0 -7 -16 -12 -41 -11 -47 0 -60 -9 -62 -46 -1 -14 -5
-26 -8 -26 -3 0 -5 -16 -4 -35 2 -19 -1 -35 -6 -35 -4 0 -8 -10 -7 -22 2 -46
-2 -59 -14 -52 -10 6 -10 4 -2 -7 6 -8 9 -25 7 -39 -2 -14 -5 -37 -6 -52 0
-16 -4 -28 -7 -28 -4 0 -6 -10 -5 -22 1 -13 0 -27 -4 -33 -5 -9 -10 -51 -14
-112 0 -13 -3 -23 -7 -23 -3 0 -6 -12 -7 -27 0 -16 -4 -46 -7 -68 -3 -22 -8
-56 -10 -75 l-4 -35 61 1 c75 0 97 9 92 35 -2 10 -1 19 4 19 4 0 8 10 8 23 1
12 5 45 8 72 3 28 7 61 8 75 1 14 5 30 8 35 3 6 4 20 3 33 0 12 2 22 5 22 4 0
6 20 6 44 -1 25 2 43 6 41 4 -3 7 5 7 18 0 47 16 162 22 162 1 0 3 20 5 45 2
25 6 58 8 73 3 20 0 30 -12 35 -9 3 -19 10 -23 16 -5 8 -8 7 -8 -1z"/>
<path d="M2214 3080 c-3 -3 -9 -5 -12 -5 -20 -2 -52 -18 -52 -26 0 -6 -4 -7
-10 -4 -5 3 -10 -1 -10 -10 0 -10 -5 -13 -12 -9 -7 4 -8 3 -4 -4 4 -7 4 -18
-1 -24 -8 -14 -8 -16 -18 -88 -3 -24 -11 -47 -17 -51 -7 -4 -5 -8 3 -11 10 -3
11 -9 4 -19 -6 -8 -11 -31 -10 -51 0 -21 -2 -38 -6 -38 -3 0 -5 -16 -4 -35 2
-19 -1 -35 -5 -35 -10 0 -8 -20 4 -39 6 -10 5 -12 -2 -7 -12 7 -16 -10 -12
-48 1 -13 -2 -16 -12 -10 -10 6 -11 5 -1 -8 7 -8 10 -18 5 -22 -4 -4 -7 -40
-7 -79 -1 -56 3 -75 17 -89 10 -10 23 -18 28 -18 6 0 10 -4 10 -8 0 -4 10 -9
23 -9 12 -1 45 -3 72 -5 28 -3 56 0 63 5 8 6 12 6 12 -2 0 -7 13 -5 35 6 19 9
35 20 35 25 0 4 7 4 17 1 10 -4 14 -2 10 4 -4 6 0 18 8 27 8 8 15 19 14 23 -1
4 1 15 4 23 4 8 9 35 11 60 2 25 5 45 6 45 1 0 3 21 4 47 1 26 -2 45 -6 42 -4
-3 -8 -1 -8 3 0 5 -24 8 -52 7 -76 -2 -95 -5 -80 -11 6 -2 9 -10 5 -16 -7 -12
-10 -26 -16 -84 -2 -18 -10 -40 -18 -50 -12 -15 -12 -16 1 -8 13 8 13 7 1 -8
-24 -30 -37 -20 -37 31 1 26 5 53 9 60 5 7 3 12 -5 12 -8 0 -9 3 -2 8 5 4 10
22 9 40 0 17 2 32 5 32 4 0 7 19 8 43 0 23 4 62 8 87 4 25 7 57 8 73 0 15 4
27 8 27 5 0 7 3 7 8 -1 4 -1 19 0 34 1 23 5 27 24 24 20 -3 22 -9 23 -60 0
-33 6 -62 14 -69 10 -9 11 -9 6 1 -8 14 10 17 18 3 3 -5 21 -5 41 -1 19 4 35
6 35 3 0 -3 7 0 15 7 8 7 12 16 9 21 -3 5 -1 9 3 9 5 0 9 15 10 33 1 17 4 51
7 75 2 23 0 44 -5 47 -4 3 -5 13 -2 22 4 10 2 14 -4 10 -6 -4 -14 0 -17 9 -3
8 -10 13 -15 10 -5 -4 -15 -1 -23 6 -13 13 -163 20 -174 8z"/>
<path d="M2723 3083 c6 -9 -4 -11 -38 -9 -29 2 -52 -2 -60 -10 -7 -7 -16 -10
-20 -6 -5 4 -5 -3 -2 -15 3 -13 2 -23 -2 -23 -4 0 -8 -6 -8 -12 0 -7 -6 -33
-13 -58 -6 -25 -11 -53 -11 -62 0 -10 -4 -18 -9 -18 -4 0 -7 -11 -5 -25 1 -14
-1 -25 -6 -25 -5 0 -5 -7 -2 -17 4 -10 2 -14 -4 -10 -7 4 -10 0 -8 -10 1 -10
0 -22 -4 -28 -6 -12 -8 -18 -17 -65 -3 -19 -10 -38 -16 -41 -5 -3 -9 -9 -9
-13 3 -24 0 -46 -6 -43 -5 3 -9 -7 -9 -21 -3 -47 -8 -72 -16 -72 -4 0 -5 -9
-3 -20 2 -11 0 -20 -4 -20 -4 0 -8 -6 -9 -12 -6 -43 -9 -58 -14 -63 -3 -3 -3
-16 -1 -28 4 -21 10 -23 61 -22 34 0 57 6 60 13 2 7 7 10 11 8 4 -3 8 5 9 17
4 37 7 51 15 65 5 6 5 17 2 22 -3 6 0 11 7 11 7 1 20 2 28 3 25 2 37 -26 35
-81 -2 -43 1 -53 14 -54 9 0 35 -2 57 -3 60 -4 64 10 66 179 1 92 5 142 11
138 6 -4 7 -1 1 8 -12 18 -12 289 -1 289 5 0 4 7 -3 15 -7 8 -8 15 -3 15 12 0
7 69 -7 85 -6 7 -19 12 -28 10 -9 -1 -23 3 -31 9 -11 8 -13 8 -8 -1z m-51
-335 c5 -14 1 -78 -6 -113 -3 -11 -5 -23 -5 -26 -1 -3 -8 -6 -16 -6 -19 0 -22
33 -8 97 3 14 5 33 6 43 1 20 23 23 29 5z"/>
<path d="M2913 3077 c-2 -4 -14 -5 -26 -1 -17 4 -23 1 -24 -13 -1 -10 -4 -33
-8 -51 -5 -26 -2 -37 12 -48 10 -7 24 -11 31 -9 14 5 15 2 16 -96 1 -47 -3
-75 -9 -73 -6 3 -11 -20 -12 -53 -2 -70 -7 -106 -18 -123 -4 -7 -2 -16 6 -21
8 -5 9 -9 4 -9 -6 0 -12 -12 -13 -26 -1 -15 -6 -32 -12 -39 -6 -7 -6 -15 2
-23 8 -8 8 -15 0 -25 -6 -7 -11 -24 -11 -37 -1 -14 -1 -36 -1 -49 0 -13 4 -29
10 -36 11 -13 108 -11 122 3 10 10 17 38 24 102 9 69 10 75 15 85 3 6 5 27 4
48 0 20 3 37 7 37 4 0 4 7 1 17 -5 12 -3 14 8 8 11 -7 12 -6 2 7 -7 8 -10 17
-7 20 3 3 7 20 9 37 3 23 1 30 -8 24 -8 -5 -8 -2 1 9 13 17 24 72 23 121 0 15
4 27 10 27 6 0 8 4 4 9 -11 19 16 57 43 59 14 1 31 10 36 20 14 23 20 105 7
98 -5 -4 -12 -2 -15 3 -6 10 -24 10 -41 0 -5 -4 -19 -4 -30 -2 -36 8 -157 8
-162 0z"/>
<path d="M3230 3078 c0 -5 -5 -6 -10 -3 -6 4 -10 3 -9 -2 1 -4 0 -11 -1 -15
-1 -5 -4 -12 -5 -18 -1 -5 -3 -11 -5 -12 -1 -2 -3 -23 -5 -48 -7 -75 -11 -105
-17 -115 -3 -6 -4 -22 -3 -37 1 -16 -1 -28 -4 -28 -3 0 -7 -17 -8 -38 -3 -45
-11 -107 -13 -107 -1 0 -3 -13 -5 -30 -1 -16 -6 -50 -10 -75 -4 -25 -8 -55 -8
-67 -1 -13 -4 -23 -7 -23 -4 0 -6 -12 -5 -27 1 -16 -2 -37 -6 -49 -12 -35 6
-47 69 -45 55 3 62 4 62 13 0 5 5 6 10 3 6 -3 10 5 10 19 0 14 5 28 10 31 8 5
8 11 1 19 -6 7 -8 16 -4 19 3 4 7 21 8 39 2 18 4 33 5 33 1 0 3 14 5 30 2 17
6 46 10 65 3 19 8 55 11 80 8 66 12 100 19 145 4 22 7 54 9 70 1 17 5 35 8 41
4 5 5 19 4 30 -2 10 -1 23 2 29 8 12 9 74 2 73 -3 0 -7 1 -10 2 -18 7 -110 5
-110 -2z"/>
<path d="M3828 3072 c-6 -7 -12 -25 -14 -40 -1 -15 -3 -27 -4 -27 -1 0 -3 -16
-5 -35 -1 -19 -6 -46 -9 -60 -4 -14 -9 -43 -11 -65 -2 -22 -6 -60 -10 -85 -7
-53 -10 -75 -20 -150 -8 -59 -13 -85 -15 -85 -1 0 -4 -28 -13 -122 -2 -23 -1
-46 2 -50 3 -4 29 -8 56 -8 54 -1 77 19 67 57 -2 10 0 18 6 18 5 0 8 14 7 30
-1 17 0 30 4 30 3 0 6 15 7 33 0 17 3 43 7 57 3 14 6 29 6 33 1 5 6 7 13 5 6
-2 12 -20 13 -40 2 -20 6 -42 10 -49 6 -8 4 -10 -5 -4 -9 5 -11 4 -6 -4 4 -6
9 -44 12 -83 2 -39 6 -73 9 -76 7 -7 123 -9 134 -2 14 8 21 70 8 70 -8 0 -7 4
2 9 8 5 15 24 17 42 2 19 6 54 10 79 3 25 8 63 9 85 1 22 4 40 5 40 2 0 4 14
6 30 2 17 6 46 9 65 16 94 36 231 39 270 2 14 1 30 -1 36 -4 12 -98 12 -110 0
-8 -7 -15 -41 -16 -73 -1 -13 -4 -23 -7 -23 -4 0 -6 -16 -5 -35 1 -19 -1 -35
-5 -35 -4 0 -7 -10 -6 -22 1 -21 -10 -37 -25 -38 -3 0 -5 18 -5 39 1 22 -1 38
-5 35 -3 -2 -5 29 -4 69 1 42 -3 77 -9 83 -17 15 -135 12 -148 -4z"/>
<path d="M534 3043 c-18 -24 -22 -36 -26 -80 -1 -13 -6 -23 -11 -23 -4 0 -5
-4 -2 -10 3 -5 3 -16 -1 -22 -5 -7 -9 -21 -11 -30 -7 -40 -11 -63 -13 -65 -2
-2 -4 -7 -5 -13 -1 -5 -3 -11 -5 -12 -2 -4 -11 -41 -12 -55 -1 -7 -5 -13 -9
-13 -4 0 -6 -9 -4 -20 2 -11 -1 -20 -6 -20 -6 0 -7 -4 -4 -10 3 -5 3 -16 -2
-22 -8 -13 -12 -29 -15 -60 -1 -10 -6 -18 -10 -18 -4 0 -5 -9 -3 -20 2 -11 0
-20 -4 -20 -4 0 -8 -7 -9 -15 -1 -8 -3 -22 -4 -30 -1 -8 -5 -15 -10 -15 -5 0
-6 -5 -3 -10 4 -6 1 -18 -7 -27 -11 -14 -11 -16 2 -8 12 7 13 6 3 -6 -19 -24
-27 -89 -11 -90 67 -4 115 -3 111 4 -2 4 0 7 5 7 6 0 13 17 18 38 8 38 10 46
14 60 1 4 2 10 1 15 0 4 2 7 6 8 5 0 16 2 26 4 9 2 17 -1 17 -6 0 -6 4 -8 8
-5 5 3 8 -22 8 -56 -1 -67 1 -69 67 -72 65 -2 74 13 73 117 -1 49 2 91 6 93 5
3 6 10 3 15 -4 5 -6 30 -5 56 0 27 1 92 2 145 1 68 4 95 12 91 8 -5 8 -3 0 8
-6 8 -10 53 -9 107 0 51 -3 96 -8 99 -5 3 -42 7 -82 8 -66 2 -74 0 -91 -22z
m61 -329 c-2 -10 -4 -21 -5 -24 -1 -3 -3 -18 -4 -35 -6 -71 -6 -71 -16 -55 -9
13 -10 13 -10 0 -1 -13 -2 -13 -10 1 -9 16 -8 65 3 75 3 3 3 12 1 19 -3 7 0
16 5 20 6 3 8 11 5 17 -4 6 0 14 7 19 17 10 29 -9 24 -37z"/>
<path d="M844 3048 c-11 -37 -26 -137 -26 -185 0 -13 -3 -23 -7 -23 -3 0 -7
-17 -8 -38 -2 -39 -7 -77 -19 -152 -4 -25 -7 -57 -7 -72 -1 -16 -4 -28 -9 -28
-4 0 -5 -7 -2 -15 3 -8 2 -20 -2 -27 -5 -7 -9 -31 -10 -53 -1 -22 -3 -41 -4
-42 -1 -2 -3 -12 -4 -22 0 -11 -4 -22 -8 -26 -4 -4 0 -14 9 -23 22 -23 141
-17 135 7 -1 6 2 11 6 11 4 0 9 10 10 23 4 71 15 127 26 146 7 10 5 12 -5 6
-8 -5 -6 0 4 12 13 15 29 20 57 19 22 -1 40 1 40 5 0 3 10 6 23 5 13 -1 21 4
19 12 -2 11 18 17 41 13 5 -1 6 3 2 9 -3 5 -1 10 4 10 6 0 11 7 11 15 0 8 5
15 10 15 6 0 9 3 9 8 -1 4 0 9 1 12 3 8 9 41 15 80 5 39 13 75 15 75 1 0 3 18
4 40 2 22 4 40 5 40 1 0 3 19 4 43 1 23 -2 42 -6 42 -5 0 -6 4 -3 8 8 13 -31
55 -55 59 -13 2 -79 5 -147 6 -107 2 -123 0 -128 -15z m173 -121 c11 -7 12
-43 1 -62 -2 -6 -4 -22 -3 -37 1 -16 -1 -28 -4 -28 -4 0 -6 -12 -5 -27 1 -41
-17 -82 -37 -80 -10 1 -15 5 -13 9 3 4 1 8 -4 8 -9 0 -9 10 3 85 3 22 7 54 9
70 6 66 20 82 53 62z"/>
<path d="M1250 3061 c-8 -3 -16 -15 -17 -26 -7 -55 -11 -73 -17 -84 -4 -6 -2
-11 5 -11 8 0 8 -4 2 -12 -6 -7 -11 -20 -11 -28 -1 -28 -10 -95 -17 -125 -4
-16 -7 -49 -8 -72 0 -23 -4 -40 -7 -38 -4 3 -7 -8 -7 -23 1 -52 -7 -107 -18
-114 -6 -5 -5 -8 3 -8 7 0 10 -5 6 -11 -3 -6 -8 -29 -10 -52 -9 -82 -11 -94
-18 -105 -4 -7 -2 -13 3 -13 21 -3 26 -4 38 -12 6 -4 14 -4 17 1 3 5 23 7 45
6 23 -1 38 2 35 7 -3 5 0 9 5 9 6 0 10 3 10 8 -1 4 0 9 1 12 1 3 4 19 6 35 2
17 6 48 9 70 3 22 6 47 7 55 2 29 19 42 36 28 11 -9 14 -9 9 -1 -5 7 -1 12 10
12 73 2 90 6 85 20 -3 9 -1 12 5 8 6 -4 18 -1 26 7 8 8 17 12 21 9 3 -4 6 1 6
11 0 9 6 19 14 22 8 3 12 13 9 25 -3 10 -1 19 5 19 6 0 9 10 7 22 -3 12 1 26
8 30 9 6 9 8 -1 8 -8 0 -10 5 -6 12 4 7 9 26 10 43 1 19 6 29 14 27 10 -2 11
0 3 10 -6 7 -9 22 -6 33 11 54 9 134 -4 139 -7 3 -13 12 -13 21 0 8 -9 15 -20
15 -11 0 -20 3 -20 8 0 11 -169 12 -175 1 -4 -5 -12 -6 -18 -2 -15 9 -49 11
-67 4z m166 -168 c1 -24 -2 -43 -6 -43 -4 0 -5 -11 -3 -24 3 -13 0 -27 -6 -30
-7 -5 -7 -15 -1 -32 7 -17 7 -23 -1 -19 -6 4 -10 1 -8 -6 3 -27 -1 -40 -11
-34 -5 3 -10 1 -10 -5 0 -7 -6 -10 -12 -8 -14 5 -19 98 -6 98 4 0 4 7 1 17 -5
12 -3 14 8 8 12 -8 12 -6 1 8 -8 9 -10 22 -6 29 5 7 9 24 10 38 1 14 2 30 3
36 0 6 11 11 24 10 19 -1 22 -7 23 -43z"/>
<path d="M1645 3053 c-13 -30 -28 -112 -27 -150 0 -13 -3 -23 -7 -23 -4 0 -6
-22 -6 -49 0 -29 -3 -47 -9 -44 -5 4 -7 0 -4 -9 4 -8 2 -21 -2 -29 -5 -8 -4
-19 2 -26 7 -9 7 -13 -2 -13 -7 0 -10 -7 -7 -15 4 -8 2 -17 -2 -20 -5 -3 -7
-15 -3 -27 4 -15 2 -19 -8 -13 -9 6 -10 4 -3 -9 13 -23 4 -78 -11 -69 -7 4 -7
1 1 -7 8 -9 9 -19 3 -31 -7 -12 -6 -20 0 -24 8 -5 8 -11 0 -20 -6 -7 -11 -29
-12 -48 -1 -20 -4 -34 -8 -32 -11 7 -3 -46 8 -57 10 -10 138 -12 192 -3 14 2
28 4 33 4 4 1 7 13 7 27 0 14 4 23 9 20 9 -6 4 54 -5 63 -3 3 -19 5 -37 5 -32
1 -32 1 -31 51 0 58 11 132 20 147 5 7 2 8 -6 3 -9 -5 -11 -4 -6 4 7 11 12 36
21 106 4 31 12 70 15 70 1 0 3 20 5 45 7 76 13 125 15 128 2 2 3 35 1 52 -1 6
-30 10 -65 10 -51 0 -65 -3 -71 -17z"/>
<path d="M1243 2123 c3 -5 -12 -9 -36 -10 -23 -1 -43 -6 -45 -12 -2 -6 -9 -11
-15 -11 -22 0 -49 -53 -49 -97 0 -13 -4 -23 -8 -23 -5 0 -7 -8 -5 -17 1 -10
-3 -24 -9 -32 -9 -12 -8 -13 4 -6 12 7 13 6 4 -6 -6 -8 -10 -29 -9 -46 0 -18
-2 -33 -6 -33 -4 0 -7 -12 -7 -27 1 -49 -12 -116 -25 -132 -9 -11 -9 -13 0 -8
8 5 11 0 10 -13 -1 -11 -4 -20 -7 -20 -4 0 -7 -15 -8 -32 -1 -18 -3 -63 -5
-100 -3 -49 -1 -71 9 -79 8 -6 11 -16 7 -23 -3 -6 -3 -8 2 -4 5 5 15 -1 22
-12 8 -11 19 -18 24 -15 5 4 15 3 22 -2 13 -9 137 -12 137 -3 0 3 12 7 28 8
15 1 29 7 30 12 2 6 10 10 18 10 9 0 13 4 10 9 -3 5 1 12 10 15 8 3 13 10 10
15 -4 5 -1 15 6 23 13 13 18 38 19 91 0 15 3 25 7 23 4 -2 7 22 7 54 0 32 -3
56 -7 54 -3 -2 -9 -1 -12 4 -6 10 -106 6 -116 -5 -9 -8 -18 -50 -26 -118 -2
-22 -9 -41 -14 -43 -5 -2 -7 -9 -4 -16 7 -19 -24 -16 -32 3 -10 24 -12 51 -3
56 4 3 6 16 4 30 -1 14 1 28 6 30 4 3 6 15 4 27 -3 11 -1 26 2 32 4 5 8 28 10
51 4 55 11 110 13 110 2 0 4 16 6 35 2 19 5 46 6 60 4 31 24 54 43 47 10 -4
13 -20 11 -57 -1 -28 3 -54 8 -58 6 -3 34 -7 61 -7 52 -2 81 15 79 45 0 8 5
25 13 37 7 12 9 24 4 27 -5 3 -7 26 -6 51 1 25 -2 45 -7 45 -5 0 -7 4 -3 10 3
5 -12 18 -35 30 -22 11 -40 17 -40 13 0 -5 -5 -1 -10 7 -5 8 -10 11 -10 5 0
-12 -71 -12 -90 0 -8 5 -11 4 -7 -2z"/>
<path d="M2050 2124 c0 -7 -43 -10 -132 -10 -151 2 -193 -4 -194 -24 -1 -8 -2
-18 -4 -22 -1 -5 -4 -17 -5 -28 -1 -11 -4 -21 -5 -22 -1 -2 -3 -23 -5 -48 -2
-25 -4 -45 -5 -45 -1 0 -3 -20 -5 -44 -1 -24 -9 -47 -16 -52 -8 -5 -9 -9 -3
-9 6 0 11 -7 11 -15 0 -8 -3 -15 -6 -15 -4 0 -7 -13 -7 -30 -1 -19 2 -28 10
-24 6 3 4 0 -4 -8 -8 -7 -15 -24 -15 -38 1 -14 -4 -28 -10 -32 -6 -5 -5 -8 3
-8 8 0 10 -5 5 -12 -4 -7 -9 -24 -9 -38 -1 -14 -2 -33 -3 -43 -1 -12 -5 -16
-13 -11 -10 6 -10 5 -1 -8 7 -8 10 -17 7 -20 -3 -3 -7 -34 -10 -69 -3 -34 -7
-66 -10 -71 -6 -9 1 -10 125 -12 82 -1 95 1 99 16 2 10 9 15 14 11 6 -3 8 0 6
8 -3 8 -2 24 3 35 5 15 3 28 -7 40 -9 11 -12 12 -8 4 7 -13 5 -13 -9 -1 -9 7
-17 10 -17 7 0 -4 -9 -2 -19 4 -15 7 -19 19 -16 47 2 21 4 38 5 38 2 0 9 48
11 88 1 15 6 27 11 27 5 0 6 5 3 10 -3 6 -1 11 4 11 37 5 52 7 59 9 4 1 11 2
16 1 5 -1 6 5 3 14 -4 8 -2 15 2 15 5 0 8 8 6 18 -1 9 2 25 7 36 7 13 7 16 -1
12 -6 -4 -11 -1 -11 7 0 11 -7 13 -22 9 -16 -4 -19 -2 -13 9 8 12 6 12 -8 0
-19 -15 -17 -18 -21 47 -1 18 1 35 5 38 4 2 6 13 4 24 -2 11 1 20 6 20 6 0 8
4 5 8 -3 5 0 9 7 10 7 1 23 3 37 4 14 2 28 8 32 13 5 6 8 6 8 -2 0 -7 13 -10
33 -9 19 2 42 -3 52 -11 14 -9 15 -13 4 -13 -9 0 -10 -3 -3 -8 6 -4 9 -16 7
-27 -2 -11 -6 -36 -8 -55 -1 -19 -3 -39 -4 -43 -1 -5 -7 -5 -13 -1 -10 6 -10
4 0 -7 13 -14 17 -43 5 -36 -5 3 -9 -14 -9 -36 -3 -60 -9 -100 -17 -115 -5 -7
-3 -12 5 -12 8 0 9 -3 3 -8 -5 -4 -11 -18 -13 -32 -2 -22 -8 -76 -15 -137 -2
-12 -5 -25 -8 -28 -12 -12 4 -53 22 -58 11 -3 19 0 19 6 0 8 3 8 8 2 13 -18
66 -11 82 10 8 11 13 22 11 24 -1 2 3 8 11 12 10 7 10 9 0 9 -8 0 -10 5 -5 13
4 6 8 21 9 32 1 11 5 38 9 60 8 49 16 114 16 137 0 10 4 20 10 23 5 4 5 14 -2
27 -6 11 -7 18 -2 15 9 -6 14 23 15 85 0 15 4 26 8 23 3 -2 7 2 7 10 0 8 -5
11 -10 8 -6 -4 -7 -1 -1 8 10 16 14 33 16 71 0 15 7 29 15 32 8 3 11 11 7 17
-4 8 -3 9 5 5 6 -4 19 -2 28 6 12 9 15 9 9 1 -5 -9 -2 -11 8 -7 9 3 16 10 16
15 0 4 7 6 15 3 8 -4 13 -10 10 -14 -3 -5 -1 -11 3 -14 5 -3 8 -18 7 -33 -1
-15 2 -33 7 -40 5 -7 5 -14 -2 -18 -6 -3 -7 -12 -3 -18 4 -7 9 -30 10 -52 1
-22 4 -75 7 -117 3 -56 1 -78 -7 -78 -7 0 -6 -4 3 -10 8 -5 10 -10 4 -10 -7 0
-10 -13 -8 -30 2 -16 0 -30 -4 -30 -4 0 -9 -17 -10 -37 -1 -21 -3 -61 -5 -88
l-4 -51 68 -1 c73 -1 77 2 85 62 2 11 6 38 9 60 3 22 7 52 7 68 1 15 4 27 8
27 3 0 6 15 5 33 0 17 3 38 8 45 5 6 7 12 3 12 -4 0 0 10 9 23 8 13 12 27 8
30 -3 4 -2 7 3 7 5 0 10 10 11 22 1 11 8 25 15 29 7 4 9 11 5 15 -4 4 1 16 10
27 10 11 12 17 6 13 -9 -5 -11 -2 -7 8 3 9 9 16 13 16 4 0 8 6 8 13 1 18 7 41
13 47 9 8 50 120 44 120 -3 0 1 7 9 15 9 8 13 23 10 33 -8 33 -145 21 -143
-13 0 -3 0 -6 -1 -7 -5 -18 -11 -47 -12 -60 -1 -10 -6 -18 -11 -18 -5 0 -6 -3
-3 -7 4 -3 2 -13 -5 -20 -9 -11 -9 -17 3 -24 11 -7 11 -9 -3 -9 -10 0 -15 -5
-12 -13 3 -8 -2 -14 -10 -14 -8 0 -13 4 -10 9 3 4 1 8 -4 8 -4 0 -8 36 -8 80
0 44 4 80 9 80 4 0 2 6 -4 13 -8 8 -34 13 -71 12 -33 -1 -61 2 -64 7 -3 5 -11
5 -17 1 -20 -12 -78 -13 -71 -1 5 7 2 8 -7 2 -22 -14 -60 -16 -74 -4 -8 7 -15
7 -19 1 -8 -13 -49 -10 -58 4 -5 7 -8 7 -8 -1z"/>
<path d="M374 2108 c-3 -5 -9 -6 -14 -3 -12 8 -75 -57 -77 -80 -2 -11 -5 -33
-8 -50 -4 -16 -8 -43 -9 -60 -2 -16 -5 -34 -7 -40 -5 -17 12 -75 22 -75 5 0 9
-5 9 -10 0 -11 41 -56 50 -56 12 1 49 -31 43 -37 -3 -4 -1 -7 6 -7 40 0 46
-60 16 -180 -2 -8 -4 -18 -4 -22 -1 -3 -9 -5 -18 -4 -18 3 -20 33 -11 149 4
41 3 41 -87 37 -55 -2 -58 -6 -71 -105 -13 -100 -10 -136 13 -164 13 -14 23
-30 23 -34 0 -5 5 -5 10 -2 6 4 16 2 23 -3 7 -5 48 -8 92 -8 78 2 125 16 125
37 0 6 4 7 10 4 5 -3 12 6 16 20 3 14 11 22 17 18 6 -4 8 0 4 10 -3 10 -2 17
3 17 5 0 7 7 4 15 -4 8 -2 15 2 15 5 0 10 17 11 38 1 20 5 53 9 72 13 66 4
117 -26 142 -11 9 -20 20 -21 25 0 4 -14 19 -32 33 -17 14 -28 18 -23 10 5 -8
-2 -3 -15 11 -13 15 -28 27 -34 28 -5 0 -9 21 -8 46 4 79 3 76 36 79 8 1 12
-16 13 -49 1 -27 2 -55 3 -62 1 -9 18 -11 59 -9 84 5 86 5 79 12 -3 4 -1 16 5
28 15 28 18 142 4 172 -6 13 -24 29 -40 36 -33 13 -195 18 -202 6z"/>
<path d="M774 2110 c-3 -3 -9 -5 -12 -5 -31 -1 -72 -55 -74 -95 0 -3 -4 -13
-9 -22 -7 -13 -6 -18 3 -18 8 0 9 -3 3 -8 -11 -8 -13 -15 -21 -80 -11 -99 -12
-107 -14 -107 -1 0 -4 -13 -6 -30 -2 -16 -6 -52 -10 -80 -3 -27 -6 -60 -6 -72
0 -13 -3 -21 -7 -19 -3 2 -6 -15 -6 -37 1 -23 -2 -51 -6 -62 -11 -33 40 -112
75 -116 51 -6 168 -4 172 3 3 4 12 8 21 8 17 0 84 66 75 74 -3 4 -1 6 4 6 10
0 13 16 15 78 1 17 4 32 8 32 3 0 7 28 9 62 1 35 8 66 15 70 9 6 9 8 -1 8 -9
0 -10 5 -3 18 7 13 6 23 -2 32 -9 10 -9 11 2 5 9 -5 12 -3 9 6 -3 8 -1 22 4
32 6 12 5 17 -4 17 -10 0 -10 2 -1 8 7 4 11 18 8 30 -2 12 0 22 4 22 4 0 7 15
5 33 -1 17 5 42 12 54 9 15 10 24 3 28 -5 4 -8 20 -5 36 3 22 -3 36 -25 60
-29 31 -31 32 -130 33 -55 1 -102 -1 -105 -4z m100 -161 c-3 -6 0 -15 7 -20 8
-5 9 -9 4 -9 -6 0 -12 -15 -13 -32 -3 -33 -9 -73 -12 -73 -1 0 -3 -10 -4 -22
-2 -13 2 -23 8 -23 7 0 6 -3 -1 -8 -7 -4 -14 -29 -15 -55 -2 -26 -7 -47 -11
-47 -5 0 -5 -4 -2 -10 3 -5 0 -10 -7 -11 -10 0 -10 -2 0 -6 6 -2 12 -13 12
-24 0 -10 -6 -19 -12 -20 -9 0 -9 -2 1 -6 9 -4 10 -8 2 -12 -5 -4 -11 -22 -13
-40 -2 -28 -21 -51 -41 -51 -3 0 -4 26 -2 58 7 124 15 177 26 181 8 2 8 6 -2
11 -10 7 -10 12 2 26 12 15 12 16 0 9 -10 -6 -12 -4 -5 6 4 8 10 32 11 54 2
21 9 43 16 47 9 6 9 8 -2 8 -11 0 -11 3 -1 15 10 12 10 15 -1 15 -9 0 -10 3
-4 8 6 4 10 14 10 22 0 8 6 23 14 32 12 14 16 14 28 2 8 -7 11 -19 7 -25z"/>
<path d="M1560 2110 c-25 -3 -44 -8 -42 -12 1 -5 2 -9 1 -10 -1 -2 -2 -14 -4
-28 -3 -23 -9 -75 -20 -158 -2 -18 -10 -41 -17 -50 -11 -13 -11 -14 1 -7 11 6
13 3 7 -16 -4 -13 -9 -40 -11 -59 -2 -19 -4 -37 -5 -40 -1 -3 -2 -13 -1 -22 1
-10 -1 -18 -6 -18 -5 0 -9 -24 -11 -52 -2 -48 -8 -93 -12 -93 -1 0 -3 -16 -5
-35 -2 -19 -3 -41 -4 -48 -1 -8 -6 -10 -13 -6 -10 6 -10 4 -2 -7 11 -16 12
-29 2 -44 -13 -21 10 -36 58 -39 83 -5 84 -4 99 79 9 46 10 49 19 64 6 10 5
12 -2 7 -7 -4 -12 -2 -12 3 0 6 4 11 8 11 5 0 8 10 7 23 -1 12 3 28 9 36 9 12
8 13 -4 6 -13 -8 -13 -7 -1 8 8 10 11 20 8 24 -4 3 -1 13 6 21 9 13 9 14 0 8
-7 -4 -13 -3 -13 3 0 5 4 12 9 15 4 3 7 17 6 31 -2 14 0 25 4 25 4 0 7 9 8 20
1 13 -2 18 -9 14 -7 -5 -8 -2 -2 7 11 18 16 43 29 139 7 50 10 64 16 75 3 6 4
27 4 48 -1 20 2 37 6 37 4 0 5 9 2 19 -6 22 -43 29 -113 21z"/>
</g>
</svg>
